<?xml version="1.0" encoding="UTF-8" standalone="no"?>
<!-- Created with Inkscape (http://www.inkscape.org/) -->

<svg
   xmlns:dc="http://purl.org/dc/elements/1.1/"
   xmlns:cc="http://creativecommons.org/ns#"
   xmlns:rdf="http://www.w3.org/1999/02/22-rdf-syntax-ns#"
   xmlns:svg="http://www.w3.org/2000/svg"
   xmlns="http://www.w3.org/2000/svg"
   xmlns:sodipodi="http://sodipodi.sourceforge.net/DTD/sodipodi-0.dtd"
   xmlns:inkscape="http://www.inkscape.org/namespaces/inkscape"
   width="354.22351"
   height="340.67377"
   viewBox="0 0 93.721635 90.136603"
   version="1.1"
   id="svg23489"
   inkscape:version="0.48.5 r10040"
   sodipodi:docname="crack_02.svg"
   tags="cracks, crack effect, overlay, crack overlay, cracked, cracked effect">
  <defs
     id="defs23483" />
  <sodipodi:namedview
     id="base"
     pagecolor="#7d848b"
     bordercolor="#666666"
     borderopacity="1.0"
     inkscape:pageopacity="1"
     inkscape:pageshadow="2"
     inkscape:zoom="1.2054152"
     inkscape:cx="23.696544"
     inkscape:cy="157.21339"
     inkscape:document-units="px"
     inkscape:current-layer="layer1"
     showgrid="false"
     inkscape:pagecheckerboard="false"
     showborder="true"
     units="px"
     inkscape:window-width="1920"
     inkscape:window-height="1017"
     inkscape:window-x="-8"
     inkscape:window-y="-8"
     inkscape:window-maximized="1"
     inkscape:showpageshadow="false"
     guidetolerance="28"
     fit-margin-top="12"
     fit-margin-right="12"
     fit-margin-bottom="12"
     fit-margin-left="12">
    <inkscape:grid
       type="xygrid"
       id="grid24034"
       spacingx="1px"
       spacingy="1px"
       empspacing="8"
       visible="true"
       enabled="true"
       snapvisiblegridlinesonly="true"
       originx="516.46465px"
       originy="-697.72238px" />
  </sodipodi:namedview>
  <metadata
     id="metadata23486">
    <rdf:RDF>
      <cc:Work
         rdf:about="">
        <dc:format>image/svg+xml</dc:format>
        <dc:type
           rdf:resource="http://purl.org/dc/dcmitype/StillImage" />
        <dc:title></dc:title>
        <cc:license
           rdf:resource="" />
        <dc:creator>
          <cc:Agent>
            <dc:title>Robert Brooks</dc:title>
          </cc:Agent>
        </dc:creator>
      </cc:Work>
    </rdf:RDF>
  </metadata>
  <g
     inkscape:label="Layer 1"
     inkscape:groupmode="layer"
     id="layer1"
     transform="translate(136.64793,-22.257691)">
    <path
       inkscape:connector-curvature="0"
       id="path6046-7"
       d="m -90.053146,28.04917 c -0.366966,-0.001 -11.089504,7.83212 -11.790584,8.26355 -0.73554,0.45264 -15.72862,2.43298 -15.95493,2.71588 -0.20268,0.25334 -1.08204,7.6619 -1.22396,10.02345 -0.0492,-0.36736 -0.0997,-0.73265 -0.13761,-1.08635 l -0.11589,2.15098 2.151,15.04964 4.50474,2.33929 -4.273,-2.10752 c -2.75386,1.59434 -9.05132,4.38046 -12.97832,6.04013 4.6426,-1.74529 12.50976,-4.54377 13.08696,-4.4613 0.79214,0.11317 12.78822,5.6572 13.01454,6.90197 0.22632,1.24479 1.47201,12.45146 1.24569,13.13042 -0.22633,0.67899 -12.67145,9.95555 -13.46357,10.74769 -0.79213,0.79213 -1.02479,0.79213 -0.57215,1.81059 0.45265,1.01846 3.73525,6.90559 3.05628,4.64236 -0.67896,-2.26324 -1.58244,-4.41242 -1.12981,-5.09138 0.45265,-0.67897 14.823326,-9.73104 15.04965,-10.52318 0.226324,-0.79212 -1.13071,-13.35674 -0.5649,-14.03571 0.5658,-0.67897 12.331947,-3.27989 12.558271,-2.9404 0.226324,0.33948 0.911646,7.1283 1.477444,7.80728 0.565811,0.67896 9.049344,3.62028 9.501992,4.18609 0.452649,0.5658 2.26323,5.99668 1.810594,5.99668 -0.452649,0 -9.053868,4.07475 -9.393354,4.86688 -0.297052,0.69311 -0.849893,8.83703 -0.83288,9.27023 0.0074,-0.0316 0.02453,-0.1272 0.0434,-0.32591 0.226324,-2.37639 1.812418,-7.35553 2.491378,-8.14767 0.678973,-0.79213 8.030897,-4.30105 8.596695,-3.96158 0.565811,0.33949 7.016051,2.37188 7.242375,2.82453 0.226324,0.45265 -0.336774,4.63874 0.115887,4.18609 0.452648,-0.45265 2.263242,-4.97551 1.810593,-4.97551 -0.452636,0 -9.393354,-3.8457 -9.393354,-3.8457 l -0.680785,-6.56883 -10.07414,-3.67912 c -0.0012,-0.18148 -0.104421,-9.33242 0.231762,-9.66857 0.339486,-0.33949 6.337077,-6.67748 6.337077,-6.67748 l 6.337066,2.151 7.351012,5.09138 -1.013934,5.20727 c 0,0 1.581557,3.27718 1.694707,3.72982 0.03994,0.15978 0.127586,0.37379 0.217275,0.58662 l -0.441775,-4.31644 1.810594,-5.54766 -6.988904,-4.71478 c -0.284662,-0.25815 -0.425933,-0.45966 -0.369346,-0.60111 0.226325,-0.56581 7.357337,-10.41182 7.923148,-10.29865 0.565811,0.11317 5.771267,2.37459 6.337078,2.0351 0.548132,-0.32888 3.010428,-5.43895 2.752099,-5.24348 -0.0086,0.006 -0.02207,0.0186 -0.03612,0.0361 -0.452649,0.56581 -3.172164,3.8457 -3.172164,3.8457 l -6.56159,-1.91924 -4.091946,4.91033 c 1.944172,-2.6762 3.813707,-5.33087 3.867434,-5.70698 0.113175,-0.79214 -8.937094,10.07414 -8.937094,10.07414 0,0 -6.337066,-2.14918 -7.242362,-2.3755 -0.905297,-0.22632 -7.927684,7.92406 -8.719819,8.26355 -0.792135,0.33947 -13.239054,3.27988 -14.144354,2.9404 -0.9053,-0.33948 -13.23543,-6.5634 -13.68809,-7.24237 -0.2534,-0.3801 -1.17776,-3.31753 -2.06407,-6.9382 -0.39293,-3.06145 -0.77477,-5.99573 -0.82563,-6.30086 -0.11317,-0.67897 1.01756,-9.44768 1.4702,-9.90032 0.45265,-0.45265 13.75146,-3.34326 14.88308,-3.23011 0.55841,0.0558 1.69715,0.61036 2.773822,1.20949 3.357447,3.72067 10.0268,10.42957 10.689745,10.33486 0.792135,-0.11317 11.432085,-7.24327 11.884733,-6.67746 0.452649,0.5658 4.415135,4.63964 5.207269,5.43177 0.792123,0.79214 7.807274,3.8457 7.807274,3.8457 l -7.017888,-4.18609 -5.996692,-7.58276 -11.768846,6.90197 -8.328726,-6.64849 c -0.257355,-0.61414 -2.140489,-3.49895 -1.854052,-4.21506 0.339487,-0.84871 7.752511,-6.90063 8.488059,-7.74934 0.03452,-0.0398 0.03982,-0.0579 0.0217,-0.0579 z m 26.333262,51.62361 0.0074,0.0942 0.03612,0.007 c -0.01479,-0.0342 -0.02885,-0.0667 -0.0434,-0.10146 z m 0.0434,0.10147 c 0.152354,0.35108 0.30419,0.67355 0.30419,0.67355 0,0 6.002104,2.03691 6.228428,2.71587 0.226337,0.67899 0.905297,4.52649 0.905297,4.52649 l 7.351,4.1861 c 0,0 -4.749184,-3.05539 -4.975496,-4.52649 -0.226324,-1.47111 -0.340398,-4.41785 -0.340398,-4.41785 l 7.466887,-5.43178 -9.393355,4.30198 -7.546553,-2.02787 z m -66.195256,-8.33597 c -1.72866,0.64986 -3.04068,1.15735 -3.31701,1.31087 -0.36623,0.20346 1.112,-0.37898 3.31701,-1.31087 z m 43.765637,-2.31756 c 0.05622,1.26138 1.207761,10.00253 1.223973,10.12484 l -0.4418,-0.15933 -0.905297,-9.9293 0.115887,-0.029 0.0074,-0.007 z"
       style="opacity:0.25;color:#000000;fill:#b7bec8;fill-opacity:1;fill-rule:nonzero;stroke:#b7bec8;stroke-width:0;stroke-miterlimit:4;stroke-dasharray:none;marker:none;visibility:visible;display:inline;overflow:visible;enable-background:accumulate"
       gds_zero_stroke="1"
       gds_color="higlight" />
    <g
       id="g7509"
       gds_color="cracks">
      <path
         gds_zero_stroke="1"
         sodipodi:nodetypes="csccccccccsccccccccccccsccccccccccccccccccccccccccccccsccccccccccccccccccccccccscccccccccscccccccccccccccccccsccccccccccccccsccccccccsccccccccccccccsccccccccccccc"
         inkscape:connector-curvature="0"
         id="path7410-2"
         d="m -132.15063,25.4835 c -0.0365,0.005 -0.0673,0.0372 -0.0706,0.0738 -0.004,0.0366 0.0216,0.0739 0.0566,0.0851 l 7.10327,2.2875 5.98407,10.64778 c 0.30656,0.52795 0.29802,0.89773 0.29802,0.89773 l -0.65885,10.41102 0,0.0925 1.77576,14.93785 -15.63061,7.4071 c -0.0819,0.0344 -0.13261,0.13053 -0.11491,0.21758 0.0178,0.087 0.10196,0.15569 0.19075,0.15545 0.0338,7e-4 0.0676,-0.007 0.097,-0.0243 0,0 15.96608,-6.94764 16.03883,-6.91157 l 13.55466,6.94661 c 0.72255,0.26495 0.77458,0.68075 0.82274,0.92162 l 1.10349,14.1523 -10.22294,6.68375 c -0.006,10e-4 -0.0123,0.005 -0.0185,0.006 l -5.52458,4.0448 c -0.16266,0.11761 -0.20883,0.36864 -0.0986,0.53643 l 3.61933,5.52458 c 0.0609,0.0958 0.16509,0.16286 0.27746,0.17881 0.1488,0.018 0.30493,-0.0571 0.38356,-0.18475 0.0786,-0.1276 0.0756,-0.30088 -0.007,-0.42567 l -3.4097,-5.21629 5.21012,-3.81049 0.0185,-0.006 10.40176,-6.78857 c 0.11724,-0.0761 0.18824,-0.21814 0.17881,-0.35759 l -0.83298,-13.4232 c -0.0722,-0.79482 0.25879,-1.19308 0.25879,-1.19308 l 14.897422,-3.62841 0.838551,9.58171 c 0.01233,0.14978 0.117613,0.28795 0.25897,0.33913 l 10.173604,3.53301 0.394619,6.27064 -9.976313,4.77853 c -0.120818,0.0579 -0.207881,0.18118 -0.221973,0.31446 l -0.844715,7.63329 0,0.0185 0.344516,6.76508 c -0.01701,0.0954 0.0614,0.19677 0.15805,0.20438 0.08729,0.006 0.173226,-0.0633 0.185308,-0.14988 l 0.09517,-6.71476 c 7.4e-5,-0.005 7.4e-5,-0.007 0,-0.0123 l 0.826222,-7.44832 10.007135,-4.78469 c 0.05055,-0.027 0.09505,-0.0652 0.129497,-0.11096 l 8.977433,3.79199 -1.78193,4.75386 c -0.06953,0.19681 0.0487,0.43921 0.246629,0.50559 l 4.74117,3.82141 c 0.0074,0.004 0.01701,0.005 0.02564,0.005 0.03218,-2.1e-4 0.06238,-0.0263 0.06719,-0.0582 0.0049,-0.0319 -0.01615,-0.0657 -0.04697,-0.0756 l -4.15206,-4.30864 1.775754,-4.71686 c 0.06916,-0.18777 -0.03168,-0.42107 -0.215796,-0.49943 l -9.569367,-4.04479 c -0.0049,-0.002 -0.0074,-0.005 -0.01233,-0.006 L -74.4277,82.86206 c -0.0099,-0.15691 -0.121927,-0.30261 -0.271285,-0.35145 l -10.179794,-3.52686 -0.820046,-9.52621 -0.0556,-0.17264 7.044615,-7.38433 7.084239,2.21767 c 0.355045,0.23403 0.631656,0.43203 0.779584,0.52439 l 7.85258,5.33548 -1.57522,5.1335 c -0.01886,0.0552 -0.02527,0.11465 -0.01849,0.17264 l 0.641248,4.67986 c 0.01948,0.14979 0.132826,0.2832 0.277462,0.3268 l 7.220172,2.0532 1.01121,4.66138 c 0.01701,0.0856 0.06337,0.16501 0.129472,0.22196 l 7.187674,5.76331 c 0.02675,0.0229 0.06029,0.0377 0.09518,0.042 0.07668,0.01 0.157471,-0.0354 0.188254,-0.10639 0.03082,-0.071 0.0086,-0.16116 -0.05104,-0.21013 l -6.809711,-6.01294 -0.961871,-4.44556 9.279576,-4.32841 c 0.19771,-0.0888 0.288607,-0.35843 0.184975,-0.54876 l -4.341633,-7.63945 3.03448,-3.84748 c 0.04192,-0.0576 0.06768,-0.12647 0.07397,-0.1973 l 0.232759,-4.6737 c 0.01344,-0.15617 -0.116503,-0.31049 -0.272629,-0.3239 -0.156188,-0.0134 -0.31049,0.1165 -0.323904,0.27264 l -0.419287,4.55231 -2.904108,3.94614 c -0.08766,0.11897 -0.100107,0.28876 -0.03082,0.41928 l 4.050954,7.49764 -9.017376,4.43414 -7.087778,-2.22677 -0.591909,-4.31608 1.670938,-5.24095 c 0.05314,-0.16174 -0.01307,-0.35486 -0.154154,-0.45011 0,0 -8.12521,-5.45279 -8.173377,-5.88633 0,-0.33719 8.195494,-10.72619 8.195494,-10.72619 l 6.217702,2.21531 c 0.03551,0.0134 0.07298,0.0218 0.110956,0.0247 0.132098,0.009 0.26697,-0.0535 0.34528,-0.16032 l 3.193899,-4.46405 c 0.04426,-0.0692 0.06608,-0.15235 0.06164,-0.2343 l 0,-6.86258 2.260973,-3.08291 c 0.04253,-0.0496 0.036,-0.13327 -0.01356,-0.17572 -0.04956,-0.0425 -0.13327,-0.036 -0.175728,0.0134 l -2.762295,2.83202 c -0.06251,0.0708 -0.09813,0.16458 -0.09863,0.25897 l 0,6.89339 -2.941105,4.11261 -5.911491,-2.26329 c -0.03526,-0.0586 -0.08346,-0.10935 -0.140173,-0.14755 l -7.778289,-4.85867 -5.645777,-6.84798 c 0,0 -0.142898,-0.35091 0.218372,-0.63993 l 5.994658,-3.56126 c 0.231268,-0.129 0.252546,-0.51209 0.03699,-0.66591 L -71.813633,33.5723 -72.5227,26.74938 c 0.0049,-0.13135 -0.12242,-0.25183 -0.253224,-0.23833 -0.130767,0.0134 -0.23149,0.15756 -0.199239,0.285 l 0.390797,7.02906 c 0.0111,0.10935 0.07138,0.21276 0.160318,0.27745 l 1.899839,1.33086 c 0.07224,0.45762 -17.761556,11.40597 -18.03405,11.25271 -0.459836,0.0852 -12.247941,-10.21703 -12.247941,-10.21703 -0.52796,-0.45983 -0.024,-0.78625 -0.024,-0.78625 l 11.294933,-7.96809 c 0.08026,-0.0435 0.10849,-0.16086 0.05696,-0.23613 -0.05166,-0.0752 -0.171302,-0.0911 -0.240773,-0.0319 0,0 -11.59348,7.94398 -12.25768,8.08023 -1.15809,0.45982 -15.41627,3.02212 -15.41627,3.02212 -0.61309,0.2384 -0.99393,-0.37617 -0.99393,-0.37617 l -6.05805,-10.7602 c -0.05,-0.0854 -0.13329,-0.15064 -0.22813,-0.17882 l -7.44216,-1.74587 c -0.0111,-0.005 -0.0237,-0.005 -0.0355,-0.005 z m 29.62215,11.02838 c 0.39169,-0.034 0.46422,-0.20615 0.99217,0.25369 l 12.631392,10.91349 c 0.127919,0.10837 0.327601,0.12156 0.468601,0.0308 l 11.278276,-6.919 c 0.36127,-0.28902 0.519751,-0.18481 0.749638,0.0758 1.353976,1.53505 6.020609,6.82465 6.050296,6.8432 l 7.220196,4.68838 c 0.0099,0.0411 0.02429,0.081 0.04426,0.11811 0,0 -7.824262,10.47936 -8.137365,10.64796 -0.289027,0.21677 -7.531118,-1.9204 -7.531118,-1.9204 -0.133824,-0.0354 -0.285217,0.006 -0.382278,0.10479 l -7.368161,7.57164 c 0,0 -15.194347,3.43014 -15.507447,3.23744 -0.3372,0.0722 -13.89586,-7.03905 -14.3294,-7.47259 l -2.49215,-14.95445 1.16772,-9.8527 c -1.9e-4,0 -0.0731,-0.46119 0.54857,-0.56338 z"
         style="font-size:medium;font-style:normal;font-variant:normal;font-weight:normal;font-stretch:normal;text-indent:0;text-align:start;text-decoration:none;line-height:normal;letter-spacing:normal;word-spacing:normal;text-transform:none;direction:ltr;block-progression:tb;writing-mode:lr-tb;text-anchor:start;baseline-shift:baseline;color:#000000;fill:#31314e;fill-opacity:1;stroke:#373748;stroke-width:0;stroke-miterlimit:4;stroke-dasharray:none;marker:none;visibility:visible;display:inline;overflow:visible;enable-background:accumulate;font-family:Sans;-inkscape-font-specification:Sans" />
      <path
         style="font-size:medium;font-style:normal;font-variant:normal;font-weight:normal;font-stretch:normal;text-indent:0;text-align:start;text-decoration:none;line-height:normal;letter-spacing:normal;word-spacing:normal;text-transform:none;direction:ltr;block-progression:tb;writing-mode:lr-tb;text-anchor:start;baseline-shift:baseline;color:#000000;fill:#31314e;fill-opacity:1;stroke:none;stroke-width:0.26458332;marker:none;visibility:visible;display:inline;overflow:visible;enable-background:accumulate;font-family:Sans;-inkscape-font-specification:Sans"
         d="m -132.15063,25.4835 c -0.0365,0.005 -0.0673,0.0372 -0.0706,0.0738 -0.004,0.0366 0.0216,0.0739 0.0566,0.0851 l 7.10327,2.2875 5.98407,10.64778 c 0.30656,0.52795 0.29802,0.89773 0.29802,0.89773 l -0.65885,10.41102 0,0.0925 1.77576,14.93785 -15.63061,7.4071 c -0.0819,0.0344 -0.13261,0.13053 -0.11491,0.21758 0.0178,0.087 0.10196,0.15569 0.19075,0.15545 0.0338,7e-4 0.0676,-0.007 0.097,-0.0243 0,0 15.96608,-6.94764 16.03883,-6.91157 l 13.55466,6.94661 c 0.72255,0.26495 0.77458,0.68075 0.82274,0.92162 l 1.10349,14.1523 -10.22294,6.68375 c -0.006,10e-4 -0.0123,0.005 -0.0185,0.006 l -5.52458,4.0448 c -0.16266,0.11761 -0.20883,0.36864 -0.0986,0.53643 l 3.61933,5.52458 c 0.0609,0.0958 0.16509,0.16286 0.27746,0.17881 0.1488,0.018 0.30493,-0.0571 0.38356,-0.18475 0.0786,-0.1276 0.0756,-0.30088 -0.007,-0.42567 l -3.4097,-5.21629 5.21012,-3.81049 0.0185,-0.006 10.40176,-6.78857 c 0.11724,-0.0761 0.18824,-0.21814 0.17881,-0.35759 l -0.83298,-13.4232 c -0.0722,-0.79482 0.25879,-1.19308 0.25879,-1.19308 l 14.897422,-3.62841 0.838551,9.58171 c 0.01233,0.14978 0.117613,0.28795 0.25897,0.33913 l 10.173604,3.53301 0.394619,6.27064 -9.976313,4.77853 c -0.120818,0.0579 -0.207881,0.18118 -0.221973,0.31446 l -0.844715,7.63329 0,0.0185 0.344516,6.76508 c -0.01701,0.0954 0.0614,0.19677 0.15805,0.20438 0.08729,0.006 0.173226,-0.0633 0.185308,-0.14988 l 0.09517,-6.71476 c 7.4e-5,-0.005 7.4e-5,-0.007 0,-0.0123 l 0.826222,-7.44832 10.007135,-4.78469 c 0.05055,-0.027 0.09505,-0.0652 0.129485,-0.11096 l 8.977445,3.79199 -1.78193,4.75386 c -0.06953,0.19681 0.0487,0.43921 0.246629,0.50559 l 4.74117,3.82141 c 0.0074,0.004 0.01701,0.005 0.02564,0.005 0.0323,-2.1e-4 0.06238,-0.0263 0.06731,-0.0582 0.0049,-0.0319 -0.01615,-0.0657 -0.04697,-0.0756 l -4.152047,-4.30864 1.775741,-4.71686 c 0.06916,-0.18777 -0.03168,-0.42107 -0.215795,-0.49943 l -9.569368,-4.04479 c -0.0049,-0.002 -0.0074,-0.005 -0.01233,-0.006 l -0.38229,-6.24598 c -0.0099,-0.15691 -0.121928,-0.30261 -0.271286,-0.35145 l -10.179793,-3.52686 -0.820047,-9.52621 -0.0556,-0.17264 7.044615,-7.38433 7.084239,2.21767 c 0.355045,0.23403 0.631657,0.43203 0.779585,0.52439 l 7.85258,5.33548 -1.575221,5.1335 c -0.01886,0.0552 -0.02527,0.11465 -0.01849,0.17264 l 0.641247,4.67986 c 0.01948,0.14979 0.132826,0.2832 0.277463,0.3268 l 7.220171,2.0532 1.011198,4.66138 c 0.01714,0.0856 0.06337,0.16501 0.129485,0.22196 l 7.187674,5.76331 c 0.02675,0.0229 0.06029,0.0377 0.09518,0.042 0.07668,0.01 0.15747,-0.0354 0.188254,-0.10639 0.03082,-0.071 0.0086,-0.16116 -0.05092,-0.21013 l -6.809723,-6.01294 -0.961872,-4.44556 9.279576,-4.32841 c 0.19771,-0.0888 0.288607,-0.35843 0.184975,-0.54876 l -4.341633,-7.63945 3.034481,-3.84748 c 0.04192,-0.0576 0.06768,-0.12647 0.07397,-0.1973 l 0.232772,-4.6737 c 0.01344,-0.15617 -0.116503,-0.31049 -0.272642,-0.3239 -0.156188,-0.0134 -0.31049,0.1165 -0.323903,0.27264 l -0.419288,4.55231 -2.904108,3.94614 c -0.08765,0.11897 -0.100106,0.28876 -0.03082,0.41928 l 4.050954,7.49764 -9.017376,4.43414 -7.087777,-2.22677 -0.59191,-4.31608 1.670938,-5.24095 c 0.05314,-0.16174 -0.01307,-0.35486 -0.154142,-0.45011 0,0 -8.125221,-5.45279 -8.173388,-5.88633 0,-0.33719 8.195493,-10.72619 8.195493,-10.72619 l 6.217703,2.21531 c 0.03563,0.0134 0.07311,0.0218 0.110955,0.0247 0.132098,0.009 0.266971,-0.0535 0.345293,-0.16032 l 3.193886,-4.46405 c 0.04426,-0.0692 0.0662,-0.15235 0.06164,-0.2343 l 0,-6.86258 2.260974,-3.08291 c 0.04253,-0.0496 0.036,-0.13327 -0.01356,-0.17572 -0.04956,-0.0425 -0.133269,-0.036 -0.175728,0.0134 l -2.762295,2.83202 c -0.06251,0.0708 -0.09813,0.16458 -0.09863,0.25897 l 0,6.89339 -2.941093,4.11261 -5.911502,-2.26329 c -0.03526,-0.0586 -0.08346,-0.10935 -0.140174,-0.14755 l -7.778289,-4.85867 -5.645777,-6.84798 c 0,0 -0.142898,-0.35091 0.218372,-0.63993 l 5.994658,-3.56126 c 0.231268,-0.129 0.252547,-0.51209 0.03699,-0.66591 l -2.534158,-1.78809 -0.709066,-6.82292 c 0.0049,-0.13135 -0.122421,-0.25183 -0.253225,-0.23833 -0.130755,0.0134 -0.231478,0.15756 -0.199239,0.285 l 0.390797,7.02906 c 0.0111,0.10935 0.07138,0.21276 0.160318,0.27745 l 1.899839,1.33086 c 0.07224,0.45762 -17.761556,11.40597 -18.03405,11.25271 -0.459836,0.0852 -12.247936,-10.21703 -12.247936,-10.21703 -0.52796,-0.45983 -0.024,-0.78625 -0.024,-0.78625 l 11.294929,-7.96809 c 0.08026,-0.0435 0.108489,-0.16086 0.05696,-0.23613 -0.05166,-0.0752 -0.171291,-0.0911 -0.240773,-0.0319 0,0 -11.593476,7.94398 -12.257676,8.08023 -1.15809,0.45982 -15.41627,3.02212 -15.41627,3.02212 -0.61318,0.2384 -0.99401,-0.37617 -0.99401,-0.37617 l -6.05805,-10.7602 c -0.05,-0.0854 -0.1333,-0.15064 -0.22814,-0.17882 l -7.44216,-1.74587 c -0.0111,-0.005 -0.0237,-0.005 -0.0355,-0.005 z m 29.62215,11.02838 c 0.39169,-0.034 0.46422,-0.20615 0.99217,0.25369 l 12.631392,10.91349 c 0.127919,0.10837 0.327601,0.12156 0.468601,0.0308 l 11.278276,-6.919 c 0.36127,-0.28902 0.519751,-0.18481 0.749638,0.0758 1.353976,1.53505 6.020609,6.82465 6.050296,6.8432 l 7.220196,4.68838 c 0.0099,0.0411 0.02429,0.081 0.04426,0.11811 0,0 -7.824262,10.47936 -8.137365,10.64796 -0.289027,0.21677 -7.531118,-1.9204 -7.531118,-1.9204 -0.133824,-0.0354 -0.285217,0.006 -0.382278,0.10479 l -7.368161,7.57164 c 0,0 -15.194347,3.43014 -15.507447,3.23744 -0.3372,0.0722 -13.89586,-7.03905 -14.3294,-7.47259 l -2.49215,-14.95445 1.16772,-9.8527 c -1.9e-4,0 -0.0731,-0.46119 0.54857,-0.56338 z"
         id="path6026-3"
         inkscape:connector-curvature="0"
         sodipodi:nodetypes="csccccccccsccccccccccccsccccccccccccccccccccccccccccccsccccccccccccccccccccccccscccccccccscccccccccccccccccccsccccccccccccccsccccccccsccccccccccccccsccccccccccccc" />
    </g>
  </g>
</svg>
