<?xml version="1.0" encoding="UTF-8" standalone="no"?>
<!-- Created with Inkscape (http://www.inkscape.org/) -->

<svg
   xmlns:dc="http://purl.org/dc/elements/1.1/"
   xmlns:cc="http://creativecommons.org/ns#"
   xmlns:rdf="http://www.w3.org/1999/02/22-rdf-syntax-ns#"
   xmlns:svg="http://www.w3.org/2000/svg"
   xmlns="http://www.w3.org/2000/svg"
   xmlns:sodipodi="http://sodipodi.sourceforge.net/DTD/sodipodi-0.dtd"
   xmlns:inkscape="http://www.inkscape.org/namespaces/inkscape"
   width="83.770332"
   height="118.78639"
   viewBox="0 0 22.164233 31.428899"
   version="1.1"
   id="svg23489"
   inkscape:version="0.48.5 r10040"
   sodipodi:docname="crack_05.svg"
   tags="cracks, crack effect, overlay, crack overlay, cracked, cracked effect">
  <defs
     id="defs23483" />
  <sodipodi:namedview
     id="base"
     pagecolor="#7d848b"
     bordercolor="#666666"
     borderopacity="1.0"
     inkscape:pageopacity="1"
     inkscape:pageshadow="2"
     inkscape:zoom="15.048856"
     inkscape:cx="40.343352"
     inkscape:cy="64.177571"
     inkscape:document-units="px"
     inkscape:current-layer="layer1"
     showgrid="false"
     inkscape:pagecheckerboard="false"
     showborder="true"
     units="px"
     inkscape:window-width="1920"
     inkscape:window-height="1017"
     inkscape:window-x="-8"
     inkscape:window-y="-8"
     inkscape:window-maximized="1"
     inkscape:showpageshadow="false"
     guidetolerance="28"
     fit-margin-top="12"
     fit-margin-right="12"
     fit-margin-bottom="12"
     fit-margin-left="12">
    <inkscape:grid
       type="xygrid"
       id="grid24034"
       spacingx="1px"
       spacingy="1px"
       empspacing="8"
       visible="true"
       enabled="true"
       snapvisiblegridlinesonly="true"
       originx="-175.96359px"
       originy="-873.65732px" />
  </sodipodi:namedview>
  <metadata
     id="metadata23486">
    <rdf:RDF>
      <cc:Work
         rdf:about="">
        <dc:format>image/svg+xml</dc:format>
        <dc:type
           rdf:resource="http://purl.org/dc/dcmitype/StillImage" />
        <dc:title />
        <cc:license
           rdf:resource="" />
        <dc:creator>
          <cc:Agent>
            <dc:title>Robert Brooks</dc:title>
          </cc:Agent>
        </dc:creator>
      </cc:Work>
    </rdf:RDF>
  </metadata>
  <g
     inkscape:label="Layer 1"
     inkscape:groupmode="layer"
     id="layer1"
     transform="translate(-46.557034,-34.415928)">
    <g
       id="g7490"
       gds_color="highlight"
       transform="translate(-216.86165,-157.15885)">
      <path
         gds_zero_stroke="1"
         style="opacity:0.25;color:#000000;fill:#b7bec8;fill-opacity:1;fill-rule:nonzero;stroke:#ffffff;stroke-width:0;stroke-linejoin:round;stroke-miterlimit:4;stroke-opacity:1;stroke-dasharray:none;marker:none;visibility:visible;display:inline;overflow:visible;enable-background:accumulate"
         d="m 269.39102,203.66916 c -1.57205,0.62882 -3.1441,1.93885 -2.67248,1.93885 0.47161,0 2.72488,-0.73362 3.09169,-0.524 0.36681,0.2096 5.24016,2.35807 5.34496,2.72488 0.10475,0.36681 -0.68121,4.82094 -0.57641,5.60697 0.10474,0.78602 2.88208,6.18338 2.41046,4.55893 -0.47161,-1.62445 -0.99563,-3.93012 -0.78601,-4.76854 0.2096,-0.83843 1.15283,-4.45414 1.72925,-4.66374 0.57641,-0.2096 1.41484,-1.20525 1.72925,-0.99563 0.31441,0.2096 2.98689,2.35807 2.30567,1.31003 -0.68122,-1.04802 -1.62445,-3.2489 -1.93886,-3.03928 -0.31441,0.2096 -2.98689,1.46724 -3.3013,1.46724 -0.31441,0 -7.07421,-3.4061 -7.07421,-3.4061 z"
         id="path6821"
         inkscape:connector-curvature="0" />
      <path
         inkscape:connector-curvature="0"
         id="path6803"
         d="m 269.39102,203.66916 c -1.57205,0.62882 -3.1441,1.93885 -2.67248,1.93885 0.47161,0 2.72488,-0.73362 3.09169,-0.524 0.36681,0.2096 5.24016,2.35807 5.34496,2.72488 0.10475,0.36681 -0.68121,4.82094 -0.57641,5.60697 0.10474,0.78602 2.88208,6.18338 2.41046,4.55893 -0.47161,-1.62445 -0.99563,-3.93012 -0.78601,-4.76854 0.2096,-0.83843 1.15283,-4.45414 1.72925,-4.66374 0.57641,-0.2096 1.41484,-1.20525 1.72925,-0.99563 0.31441,0.2096 2.98689,2.35807 2.30567,1.31003 -0.68122,-1.04802 -1.62445,-3.2489 -1.93886,-3.03928 -0.31441,0.2096 -2.98689,1.46724 -3.3013,1.46724 -0.31441,0 -7.07421,-3.4061 -7.07421,-3.4061 z"
         style="opacity:0.25;color:#000000;fill:#dbdee3;fill-opacity:1;fill-rule:nonzero;stroke:none;stroke-width:4;marker:none;visibility:visible;display:inline;overflow:visible;enable-background:accumulate" />
    </g>
    <g
       id="g7494"
       gds_color="crack"
       transform="translate(-216.86165,-157.15885)">
      <path
         gds_zero_stroke="1"
         inkscape:connector-curvature="0"
         style="font-size:medium;font-style:normal;font-variant:normal;font-weight:normal;font-stretch:normal;text-indent:0;text-align:start;text-decoration:none;line-height:normal;letter-spacing:normal;word-spacing:normal;text-transform:none;direction:ltr;block-progression:tb;writing-mode:lr-tb;text-anchor:start;baseline-shift:baseline;color:#000000;fill:#31314e;fill-opacity:1;fill-rule:nonzero;stroke:#31314e;stroke-width:0;stroke-linejoin:round;stroke-miterlimit:4;stroke-opacity:1;stroke-dasharray:none;marker:none;visibility:visible;display:inline;overflow:visible;enable-background:accumulate;font-family:Sans;-inkscape-font-specification:Sans"
         d="m 268.64559,194.80799 c -0.24799,-0.0165 -0.28341,0.98793 -0.2656,1.48925 0.0717,2.01728 0.0203,2.39451 0.0854,3.4623 0.12998,2.13557 0.1328,2.45681 0.1328,2.45681 l 0.14228,1.33749 c -1.1113,0.75528 -2.31982,1.59009 -1.56514,1.52719 0.64867,-0.054 1.87116,-0.50122 2.49474,-0.73988 0.69019,0.29222 5.95778,2.5404 6.27007,3.1303 0.26477,0.64355 -0.15477,2.04355 -0.65451,3.32 -0.25959,0.66305 -0.5354,1.25815 -0.73989,1.78331 -0.49085,-0.65821 -1.24696,-1.49708 -1.29955,-1.70743 -0.0741,-0.29642 0.22766,-1.33749 0.22766,-1.33749 l -0.89165,1.33749 c 0,0 0.88297,1.56624 1.66949,2.95007 0.003,0.0599 0.0168,0.12383 0.0285,0.18023 l 1.11932,3.984 c 0.1834,1.23145 0.74937,1.03395 0.74937,1.03395 l 4.60059,0.62606 c 0,0 1.90913,0.34111 1.56515,-0.0474 -0.1216,-0.13733 -0.52435,-0.36206 -1.3944,-0.73039 -0.84354,-0.0966 -2.48438,-0.30838 -4.0599,-0.9391 l -1.5272,-4.46777 0,-0.038 c 0,0 1.34046,-4.17283 1.85921,-5.3215 l 1.0624,-0.69245 1.49874,-0.85372 c 0.68869,0.66164 2.10697,1.89941 1.86869,1.42285 -0.22598,-0.45197 -1.01102,-2.05776 -1.47029,-2.93108 l 0,-2.77932 0,-0.0474 -0.009,-0.0569 -1.9256,-4.55315 0.32251,2.50423 0.3984,2.20069 0,3.29155 c 0,0 -1.37806,0.97795 -2.39989,0.76834 0,0 -5.23646,-1.63003 -6.7823,-3.59509 -0.0194,-0.26288 -0.1647,-0.91439 -0.28457,-2.88366 -0.0647,-1.06279 -0.0835,-1.68445 -0.34149,-3.78481 -0.0562,-0.45781 -0.17421,-1.27894 -0.48377,-1.29955 z"
         id="path6823"
         sodipodi:nodetypes="ccccccccscccccccccccccccccsccccccccccsccc" />
      <path
         id="path6785"
         d="m 268.64559,194.80799 c -0.24799,-0.0165 -0.28341,0.98793 -0.2656,1.48925 0.0717,2.01728 0.0203,2.39451 0.0854,3.4623 0.12998,2.13557 0.1328,2.45681 0.1328,2.45681 l 0.14228,1.33749 c -1.1113,0.75528 -2.31982,1.59009 -1.56514,1.52719 0.64867,-0.054 1.87116,-0.50122 2.49474,-0.73988 0.69019,0.29222 5.95778,2.5404 6.27007,3.1303 0.26477,0.64355 -0.15477,2.04355 -0.65451,3.32 -0.25959,0.66305 -0.5354,1.25815 -0.73989,1.78331 -0.49085,-0.65821 -1.24696,-1.49708 -1.29955,-1.70743 -0.0741,-0.29642 0.22766,-1.33749 0.22766,-1.33749 l -0.89165,1.33749 c 0,0 0.88297,1.56624 1.66949,2.95007 0.003,0.0599 0.0168,0.12383 0.0285,0.18023 l 1.11932,3.984 c 0.1834,1.23145 0.74937,1.03395 0.74937,1.03395 l 4.60059,0.62606 c 0,0 1.90913,0.34111 1.56515,-0.0474 -0.1216,-0.13733 -0.52435,-0.36206 -1.3944,-0.73039 -0.84354,-0.0966 -2.48438,-0.30838 -4.0599,-0.9391 l -1.5272,-4.46777 0,-0.038 c 0,0 1.34046,-4.17283 1.85921,-5.3215 l 1.0624,-0.69245 1.49874,-0.85372 c 0.68869,0.66164 2.10697,1.89941 1.86869,1.42285 -0.22598,-0.45197 -1.01102,-2.05776 -1.47029,-2.93108 l 0,-2.77932 0,-0.0474 -0.009,-0.0569 -1.9256,-4.55315 0.32251,2.50423 0.3984,2.20069 0,3.29155 c 0,0 -1.37806,0.97795 -2.39989,0.76834 0,0 -5.23646,-1.63003 -6.7823,-3.59509 -0.0194,-0.26288 -0.1647,-0.91439 -0.28457,-2.88366 -0.0647,-1.06279 -0.0835,-1.68445 -0.34149,-3.78481 -0.0562,-0.45781 -0.17421,-1.27894 -0.48377,-1.29955 z"
         style="font-size:medium;font-style:normal;font-variant:normal;font-weight:normal;font-stretch:normal;text-indent:0;text-align:start;text-decoration:none;line-height:normal;letter-spacing:normal;word-spacing:normal;text-transform:none;direction:ltr;block-progression:tb;writing-mode:lr-tb;text-anchor:start;baseline-shift:baseline;color:#000000;fill:#31314e;fill-opacity:1;fill-rule:nonzero;stroke:none;stroke-width:4;marker:none;visibility:visible;display:inline;overflow:visible;enable-background:accumulate;font-family:Sans;-inkscape-font-specification:Sans"
         inkscape:connector-curvature="0"
         sodipodi:nodetypes="ccccccccscccccccccccccccccsccccccccccsccc" />
    </g>
  </g>
</svg>
