<?xml version="1.0" encoding="UTF-8" standalone="no"?>
<!-- Created with Inkscape (http://www.inkscape.org/) -->

<svg
   xmlns:dc="http://purl.org/dc/elements/1.1/"
   xmlns:cc="http://creativecommons.org/ns#"
   xmlns:rdf="http://www.w3.org/1999/02/22-rdf-syntax-ns#"
   xmlns:svg="http://www.w3.org/2000/svg"
   xmlns="http://www.w3.org/2000/svg"
   xmlns:sodipodi="http://sodipodi.sourceforge.net/DTD/sodipodi-0.dtd"
   xmlns:inkscape="http://www.inkscape.org/namespaces/inkscape"
   width="199.19066"
   height="415.08282"
   viewBox="0 0 52.702527 109.824"
   version="1.1"
   id="svg23489"
   inkscape:version="0.48.5 r10040"
   sodipodi:docname="crack_03.svg"
   tags="cracks, crack effect, overlay, crack overlay, cracked, cracked effect">
  <defs
     id="defs23483" />
  <sodipodi:namedview
     id="base"
     pagecolor="#7d848b"
     bordercolor="#666666"
     borderopacity="1.0"
     inkscape:pageopacity="1"
     inkscape:pageshadow="2"
     inkscape:zoom="0.85235729"
     inkscape:cx="182.16974"
     inkscape:cy="121.50423"
     inkscape:document-units="px"
     inkscape:current-layer="layer1"
     showgrid="false"
     inkscape:pagecheckerboard="false"
     showborder="true"
     units="px"
     inkscape:window-width="1920"
     inkscape:window-height="1017"
     inkscape:window-x="-8"
     inkscape:window-y="-8"
     inkscape:window-maximized="1"
     inkscape:showpageshadow="false"
     guidetolerance="28"
     fit-margin-top="12"
     fit-margin-right="12"
     fit-margin-bottom="12"
     fit-margin-left="12">
    <inkscape:grid
       type="xygrid"
       id="grid24034"
       spacingx="1px"
       spacingy="1px"
       empspacing="8"
       visible="true"
       enabled="true"
       snapvisiblegridlinesonly="true"
       originx="467.32814px"
       originy="-696.64194px" />
  </sodipodi:namedview>
  <metadata
     id="metadata23486">
    <rdf:RDF>
      <cc:Work
         rdf:about="">
        <dc:format>image/svg+xml</dc:format>
        <dc:type
           rdf:resource="http://purl.org/dc/dcmitype/StillImage" />
        <dc:title></dc:title>
        <cc:license
           rdf:resource="" />
        <dc:creator>
          <cc:Agent>
            <dc:title>Robert Brooks</dc:title>
          </cc:Agent>
        </dc:creator>
      </cc:Work>
    </rdf:RDF>
  </metadata>
  <g
     inkscape:label="Layer 1"
     inkscape:groupmode="layer"
     id="layer1"
     transform="translate(123.64723,-2.8561603)">
    <path
       sodipodi:nodetypes="csssscccsccscscsscssscsscccscscscccsssssssssscscccsccscccccscsssssssssscscssccccccccsccccscccccccscsssssscccscsssccsscsssssssscccccccssccscscsscccsscc"
       inkscape:connector-curvature="0"
       style="opacity:0.25;color:#000000;fill:#dbdee3;fill-opacity:1;stroke:#dbdee3;stroke-width:0;stroke-linejoin:round;stroke-miterlimit:4;stroke-dasharray:none;marker:none;visibility:visible;display:inline;overflow:visible;enable-background:accumulate"
       d="m -99.990171,12.25802 c -1.552979,1.82703 -1.798329,1.53354 -1.798329,2.35571 0,0.82216 3.351152,4.86005 3.716558,5.40816 0.365407,0.54811 2.653701,2.28043 2.745053,2.64583 0.09135,0.36541 0.273252,1.74179 0.181901,2.38125 -0.07529,0.52706 -1.142365,8.17334 -1.157552,10.18646 -0.703649,1.68127 -1.769402,3.96875 -1.769402,3.96875 l 2.166277,3.65456 c -1.019901,-1.18406 -2.151414,-2.52516 -2.348178,-2.91869 -0.365406,-0.73081 -5.299937,-0.82682 -5.299937,-0.82682 0,0 -0.11217,-0.12732 -0.19844,-0.22324 -0.80206,-1.71103 -0.80132,-2.7971 -0.62011,-3.43132 0.1827,-0.63946 1.00045,-1.37252 1.00045,-1.37252 0,0 1.64498,-0.724 1.73633,-1.54616 0.0913,-0.82216 -2.19108,-2.38125 -2.19108,-2.38125 0,0 -0.81976,-1.09366 -0.5457,-2.46393 0.27405,-1.37028 1.63951,-4.74958 1.0914,-3.92741 -0.54811,0.82216 -2.46393,5.02708 -2.46393,5.02708 0,0 3.0179,2.09692 3.0179,2.82774 0,0.73081 0.17765,1.00712 -0.73587,1.37252 -0.91351,0.36541 -1.82567,1.46067 -2.19108,2.10013 -0.27405,0.4796 -0.44104,0.85897 -0.23978,1.36426 -1.01164,0.83305 -4.77082,5.60865 -4.05143,5.20898 0.82216,-0.45675 3.1978,-2.18867 3.65456,-2.73678 0.45676,-0.54811 1.55443,1.46348 1.55443,1.46348 l 6.027535,1.00045 3.836458,4.11758 c 0,0 0.272852,3.01389 0.272852,3.92741 0,0.91352 3.199805,2.00918 3.199805,2.00918 0,0 -0.460615,1.64017 -1.008724,2.82773 -0.269231,0.58334 0.460008,-0.0713 1.265039,-0.8847 0.836508,-1.09123 1.535569,-2.03891 1.570963,-2.21588 0.09135,-0.45676 -4.10931,-2.38125 -4.10931,-2.38125 l -0.553971,-4.01836 c 0,0 -0.216722,-0.2529 -0.438216,-0.50436 -1.063806,-2.32729 -2.363026,-3.93906 -2.025716,-4.61367 0.365406,-0.73082 2.645432,-4.93133 2.736783,-6.02754 0.09135,-1.09622 1.643774,-8.77099 2.00918,-9.1364 0.365406,-0.3654 3.289953,-1.73272 3.472657,-2.55488 0.182703,-0.82216 1.371323,-3.19354 1.645377,-2.73678 0.274055,0.45675 0.823615,1.73592 1.554427,1.82727 0.730813,0.0914 2.189076,-0.37327 2.645834,-0.0992 0.456758,0.27406 3.748315,1.92104 3.108854,1.28158 -0.639461,-0.63946 -1.645779,-1.73272 -1.554427,-2.55488 0.09135,-0.82217 0.641713,-1.46188 1.372526,-1.82728 0.555405,-0.2777 2.684484,-1.71706 3.398242,-2.19108 -0.999269,0.49846 -4.781385,1.49002 -4.952669,1.91823 -0.182703,0.45675 -0.545703,2.46393 -0.545703,2.46393 l -3.290756,0 -2.19108,-2.28203 c 0,0 -3.289152,4.56406 -3.654558,4.56406 -0.365406,0 -1.916625,0.27631 -2.282031,1.37253 -0.08131,0.24391 -0.252118,0.87548 -0.463021,1.66191 0.186398,-0.97873 0.302934,-1.66561 0.28112,-1.75286 -0.09135,-0.36541 -1.463477,-2.46394 -1.463477,-2.46394 l -6.209443,-7.49101 z m 8.847006,41.13444 c -1.322483,1.7252 -3.001368,3.81166 -3.001368,3.81166 0,0 -0.176039,1.91301 0.372071,3.10058 0.548109,1.18758 3.464388,8.04499 3.464388,8.04499 -2.192438,-5.57244 -2.099729,-7.76772 -2.191081,-8.77259 -0.09135,-1.00487 1.005516,-3.7431 1.736328,-4.29121 0.730813,-0.54811 5.754688,-2.01464 5.754688,-2.6541 0,-0.63946 0.08894,-2.01079 0.545703,-1.64538 0.456758,0.3654 2.561547,1.55523 2.926953,1.37253 0.365407,-0.18271 1.462274,-0.91191 1.736328,-0.36381 0.274055,0.54811 0.91111,1.37253 0.545704,1.37253 -0.365407,0 -2.010383,1.64257 -1.736329,2.28203 0.274055,0.63946 6.400412,4.65702 6.217709,4.20026 -0.182703,-0.45675 -5.119638,-4.47111 -4.754232,-4.92786 0.365406,-0.45676 1.645378,-2.38125 1.645378,-2.38125 0,0 -0.915368,-2.55609 -1.463477,-2.28203 -0.548109,0.27405 -2.372982,0.45475 -2.372982,0.45475 0,0 -2.377641,-2.09507 -3.199805,-1.36426 -0.822164,0.73081 -1.37012,2.46353 -1.918229,2.55488 -0.548109,0.0914 -2.554883,-0.3638 -2.554883,-0.3638 0,0 -0.918985,1.0095 -1.752864,1.85208 z M -76.08672,15.49917 c -0.02418,0.0151 -0.0974,0.0625 -0.165364,0.10749 0.03728,-0.0205 0.08163,-0.0394 0.107487,-0.0579 0.07993,-0.0571 0.09303,-0.0716 0.05788,-0.0496 z m -1.951302,53.36315 c -0.08725,0.003 -0.127174,0.0441 -0.115755,0.12402 0.09135,0.63947 -0.545703,3.38171 -0.545703,3.38171 l -4.48138,2.55488 -2.463933,-2.73678 -3.381706,-1.73633 c 0,0 -5.842429,3.65095 -6.573242,4.47311 -0.730812,0.82216 -0.0039,0.91256 -1.008724,2.10013 -1.004867,1.18757 -3.472655,4.20026 -3.472655,4.20026 0,0 0.0362,0.33454 0.0413,0.38861 l -3.60495,-1.20716 -0.7276,-4.20026 1.00045,-3.83646 -10.2278,-1.55443 c 0,0 -0.3622,2.82773 -0.7276,2.82773 -0.36541,0 -5.85391,-1.0914 -5.85391,-1.0914 1.73568,0.73081 6.0334,3.19555 6.58151,2.28203 0.54811,-0.91351 0.55197,-2.92029 1.00873,-2.55488 0.45675,0.3654 7.76426,0.91496 7.67291,1.55442 -0.0913,0.63946 -0.64532,2.00598 -0.55397,2.73679 0.0913,0.73081 1.55603,3.65295 1.19063,4.01836 -0.36541,0.36541 -4.20613,3.5612 -4.75424,4.10931 -0.5481,0.54811 4.20693,-1.64418 4.57234,-1.91823 0.3654,-0.27406 1.55442,-0.81856 1.55442,-0.81856 l 1.54616,0.27285 c 0,0 0.73547,1.54962 0.82682,2.64584 0.0914,1.09622 0.27286,2.19935 0.27286,2.19935 0,0 3.110054,2.36777 2.835999,3.55534 -0.274054,1.18757 -1.46508,1.73617 -1.099674,3.65455 0.365406,1.91839 1.008323,6.67061 1.099674,5.20899 0.09135,-1.46163 0.09095,-5.20899 0.09095,-5.20899 l 0.363802,-0.27285 c 0,0 0.360995,2.37884 1.000456,2.92695 0.639461,0.54811 5.944054,0.1787 6.126758,0.90951 0.182703,0.73081 1.093812,3.3809 0.545703,3.56361 -0.548109,0.1827 -2.654102,0.91296 -2.654102,2.00918 0,1.09622 0.644521,7.39901 0.735873,5.75468 0.09135,-1.64432 0.453148,-4.83531 0.818554,-5.20071 0.365406,-0.36541 2.744651,-1.00472 2.836003,-1.91823 0.09135,-0.91352 -0.0032,-4.38762 0.727604,-5.02708 0.730813,-0.63947 3.473058,-0.64132 3.381706,-1.46348 -0.09135,-0.82217 -1.191427,-4.93373 -1.008724,-5.48184 0.182703,-0.54811 1.101279,-3.37504 0.735872,-3.00963 -0.365406,0.3654 -1.827278,2.64583 -1.827278,2.64583 l 0.818554,5.93659 -4.473112,1.28157 -5.663737,-1.28157 -2.554883,-6.75514 -1.16582,-1.86862 c 0.09255,-0.0266 0.157096,-0.0496 0.157096,-0.0496 -0.456757,-2.6492 -0.456356,-4.93373 -0.09095,-5.48184 0.365406,-0.54811 3.472255,-3.01429 3.563607,-3.83646 0.09135,-0.82216 -0.275258,-1.18902 0.272851,-1.55443 0.54811,-0.3654 5.571183,-4.29161 5.936589,-4.20026 0.365406,0.0914 2.007976,0.63425 2.282031,1.18236 0.274055,0.54811 2.288295,3.10846 2.745052,3.19981 0.456758,0.0914 4.382563,-2.7392 4.291212,-2.19108 -0.09135,0.5481 0.09095,2.28203 0.09095,2.28203 0,0 1.827279,0.91496 1.827279,1.55442 0,0.63946 0.553169,4.02077 0.735872,3.47266 0.182703,-0.54811 0.545703,-3.93568 0.545703,-3.93568 l -1.562695,-1.4056 c 0.04449,-0.16359 0.07735,-0.46451 0.09922,-0.96738 0.09135,-2.10108 0.180297,-4.65661 0.545703,-4.29121 0.365406,0.36541 3.475062,0.18311 2.926953,-0.091 -0.479596,-0.23979 -3.200918,-1.88283 -3.811654,-1.86035 z"
       id="path7370"
       gds_zero_stroke="1"
       gds_color="highlight" />
    <g
       id="g7506"
       gds_color="crack">
      <path
         gds_zero_stroke="1"
         style="font-size:medium;font-style:normal;font-variant:normal;font-weight:normal;font-stretch:normal;text-indent:0;text-align:start;text-decoration:none;line-height:normal;letter-spacing:normal;word-spacing:normal;text-transform:none;direction:ltr;block-progression:tb;writing-mode:lr-tb;text-anchor:start;baseline-shift:baseline;color:#000000;fill:#31314e;fill-opacity:1;stroke:#373748;stroke-width:0;stroke-miterlimit:4;stroke-dasharray:none;marker:none;visibility:visible;display:inline;overflow:visible;enable-background:accumulate;font-family:Sans;-inkscape-font-specification:Sans"
         d="m -96.864955,6.0640902 c -0.158069,0.0145 -0.295265,0.15402 -0.30702,0.31232 l -0.577506,4.7819398 -1.661914,0.42168 c -0.03406,0.008 -0.06734,0.0188 -0.09922,0.0331 0,0 -1.272495,0.57615 -1.752865,1.90169 -0.31402,0.0572 -0.51842,0.44427 -0.38861,0.73587 0.24167,0.64021 0.83939,1.35837 1.61231,2.2655 0.772911,0.90713 1.725113,1.94247 2.6541,2.94349 0.928986,1.00101 1.869069,1.81984 2.576937,2.54266 0.833256,0.85085 0.820709,1.87184 0.822088,1.89386 -0.0159,0.17959 -0.03347,0.42875 -0.174416,1.24375 -0.153448,0.88729 -0.368309,2.00839 -0.595313,3.14193 -0.227003,1.13353 -0.463821,2.2887 -0.686263,3.24114 -0.222441,0.95245 -0.441285,1.72568 -0.553971,2.00918 -0.248575,0.6254 -1.065071,2.04426 -1.719792,3.38171 -0.32736,0.66872 -1.006385,1.56175 -1.101518,1.88712 -0.04757,0.16269 -0.07394,0.31493 -0.0777,0.46621 -1.12e-4,0.005 7.1e-5,0.009 0,0.0137 -0.08375,-0.005 -0.180662,-0.01 -0.287952,-0.0229 -0.307635,-0.0378 -1.23133,0.19929 -1.90627,0.0619 -1.25327,-0.25519 -2.26851,-0.51326 -2.43086,-0.55397 0,0 -1.86628,-3.15543 -1.98437,-3.36517 0.1145,-0.15247 0.2349,-0.31582 0.52917,-0.66146 0.40611,-0.47701 0.96263,-0.98959 1.12447,-1.0666 0.28927,-0.13763 0.69316,-0.19806 1.10795,-0.46302 0.20739,-0.13248 0.4301,-0.35744 0.5209,-0.65319 0.0908,-0.29575 0.0643,-0.62018 -0.0413,-0.95911 -0.23758,-0.76208 -0.87241,-1.29104 -1.4056,-1.69499 -0.48069,-0.36417 -0.82675,-0.55092 -0.90951,-0.59531 l -0.0165,-0.008 -0.7276,-0.62839 c 0.46835,-1.29661 1.16314,-3.23428 2.20494,-4.81856 0.0871,-0.11697 0.0519,-0.30525 -0.0715,-0.38294 -0.12339,-0.0777 -0.30836,-0.028 -0.37622,0.10106 l -2.52459,4.09637 c -0.57008,1.0571 -0.45684,1.34362 -0.26619,1.50845 l 1.08314,0.93431 c 0.0304,0.0257 0.0638,0.0479 0.0992,0.0661 0,0 0.41924,0.21586 0.87643,0.56224 0.4572,0.34637 0.91066,0.84127 1.017,1.18235 0.0663,0.21264 0.0481,0.30034 0.0413,0.32246 -0.007,0.0221 0.004,0.0296 -0.0661,0.0744 -0.14036,0.0897 -0.55191,0.18346 -1.00046,0.39688 -0.57597,0.27404 -1.04447,0.83613 -1.48001,1.34772 -0.43555,0.51159 -0.77722,0.97565 -0.77722,0.97565 -0.12158,0.16443 -0.13513,0.40157 -0.0331,0.57878 0,0 0.14369,0.25256 0.38034,0.69453 l -2.97656,3.58014 c -0.003,0.003 -0.005,0.006 -0.008,0.008 0,0 -0.27073,0.3541 -0.62012,0.71107 -0.34938,0.35697 -0.8384,0.68718 -0.94258,0.71107 -0.0167,0.004 -0.18669,10e-4 -0.39687,-0.0661 -0.21018,-0.0676 -2.83123,-0.96101 -2.97832,-1.03818 -0.29418,-0.15435 -0.54069,-0.32022 -0.54069,-0.32022 -0.14284,-0.12167 -0.38888,-0.089 -0.49499,0.0658 -0.10611,0.15475 -0.0479,0.39604 0.11703,0.48543 0,0 0.27148,0.18516 0.60893,0.36221 0.16873,0.0885 2.66502,1.35711 2.96558,1.45372 0.30056,0.0968 0.60868,0.17958 0.95911,0.0992 0.63007,-0.14448 1.05874,-0.61191 1.45521,-1.01699 0.38751,-0.39592 0.67326,-0.7523 0.68626,-0.76895 3e-4,-2.6e-4 0.008,-0.0248 0.008,-0.0248 l 2.55489,-3.06751 1.55442,2.06706 c 0.0724,0.0977 0.1796,0.16914 0.29766,0.19844 0,0 1.28203,0.32251 2.66237,0.60358 0.69017,0.14053 1.411788,0.26465 2.017448,0.33899 0.302829,0.0372 0.567662,0.0644 0.810286,0.0661 0.08948,8e-4 0.174129,0.006 0.256315,0 0.862126,1.12534 3.714102,4.12928 3.859453,4.32067 l 0.208257,3.84912 c 0.01587,0.22568 0.192529,0.43061 0.413411,0.47956 0,0 0.537914,0.25051 1.438932,0.63588 0.450508,0.19268 0.902841,0.42559 1.215429,0.66972 0.221095,0.17268 0.354486,0.34303 0.42168,0.47956 -0.08889,0.1492 -0.437852,0.74615 -0.942578,1.57096 -0.262005,0.42817 -0.544379,0.87861 -0.79375,1.27331 -0.495598,0.58658 -1.013549,1.19358 -1.430404,1.78594 -0.423125,0.60127 -0.768249,1.17546 -0.843359,1.80247 -0.07101,0.59277 0.05877,1.28298 0.248047,2.05052 0.189274,0.76755 0.453162,1.60336 0.727604,2.37299 0.548883,1.53925 1.124479,2.84427 1.124479,2.84427 0.0098,0.0199 0.02085,0.0393 0.03307,0.0579 l 3.092318,5.27513 c -0.351625,0.21111 -1.496798,0.90541 -3.092318,1.98437 -0.910519,0.61574 -1.843446,1.2824 -2.612761,1.90996 -0.769314,0.62756 -1.370047,1.15525 -1.653645,1.76113 -0.331654,0.70856 -1.086401,1.65462 -1.810743,2.53008 -0.652353,0.78846 -1.638331,1.48328 -1.952911,2.16628 -0.44246,-0.0554 -0.76685,-0.15701 -1.38745,-0.26458 -0.68572,-0.11886 -1.05012,-0.19303 -1.29812,-0.23978 l -0.57877,-3.72897 0.95084,-3.52227 c 0.0734,-0.27503 -0.11894,-0.59163 -0.39687,-0.65319 l -3.63802,-0.80202 c -0.0108,-0.006 -0.0219,-0.0114 -0.0331,-0.0165 l -2.34818,-0.3638 -1.07721,-4.82475 c -0.006,-0.11106 -0.12068,-0.20336 -0.23055,-0.18593 -0.10986,0.0174 -0.19011,0.14065 -0.16164,0.24818 l 0.34492,4.44004 c -0.50286,-0.061 -1.101,-0.097 -1.66191,-0.12402 -0.80735,-0.0389 -1.50482,-0.0496 -1.50482,-0.0496 -0.23692,0.002 -0.46079,0.18222 -0.51263,0.41341 l -0.49609,2.25723 -5.34701,-0.95093 c -0.21163,-0.0283 -0.42996,0.13845 -0.45829,0.35008 -0.0283,0.21163 0.13846,0.42996 0.35009,0.45828 l 5.78594,1.25878 c 0.26323,0.0391 0.53996,-0.15311 0.59531,-0.41341 l 0.49609,-2.29857 c 0.24388,0.006 0.47741,0.006 1.0418,0.0331 0.71796,0.0346 4.98574,0.79375 4.98574,0.79375 l 0.0331,0.008 3.06751,0.66972 -0.84336,3.10886 c -0.0174,0.0701 -0.0202,0.14375 -0.008,0.21497 l 0.57051,3.66283 c -0.59702,0.24071 -1.09753,0.70152 -1.50482,1.11621 -0.41879,0.4264 -3.22124,2.9417 -3.22124,2.9417 -0.0719,0.0861 -0.0876,0.21503 -0.0387,0.3159 0.049,0.10087 0.1601,0.16819 0.2722,0.16492 0.0883,-0.001 0.17515,-0.0445 0.22896,-0.11448 0,0 3.12925,-2.18348 3.50288,-2.5639 0.36987,-0.37659 0.87217,-0.7666 1.17409,-0.8847 0.0268,0.0105 0.0545,0.0188 0.0827,0.0248 0,0 0.80964,0.15103 1.70325,0.30592 0.60435,0.10476 0.84704,0.20468 1.33785,0.26459 -8.7e-4,0.22001 0.3765,0.44912 0.39848,0.7028 0.0515,0.59392 0.16554,1.273 0.28112,1.90169 0.231159,1.25737 0.504361,2.36471 0.504361,2.36471 0.01507,0.0588 0.04036,0.11506 0.07441,0.16537 0,0 0.527703,0.78133 1.050065,1.64538 0.261181,0.43202 0.516201,0.8814 0.7028,1.25677 0.163273,0.32844 0.252503,0.66343 0.272851,0.68626 -0.0061,0.0305 -0.06396,0.28643 -0.190169,0.57051 -0.132581,0.29842 -0.328027,0.65351 -0.51263,0.98392 -0.369207,0.66083 -0.735873,1.23199 -0.735873,1.23199 -0.0672,0.10714 -0.09415,0.23888 -0.07441,0.3638 l 1.254509,6.33023 c 0.01375,0.11042 0.113697,0.2037 0.224794,0.20981 0.144193,0.009 0.276111,-0.13871 0.251019,-0.28099 l -0.655452,-6.22598 c 0.08534,-0.13421 0.32692,-0.51744 0.661458,-1.11621 0.106052,-0.18981 0.212274,-0.3816 0.314193,-0.57877 l 1.5875,4.21679 c 0.06242,0.17825 0.227065,0.31655 0.413412,0.34727 l 5.6472,0.83509 c 0.08042,0.0102 0.163164,0.002 0.239779,-0.0248 0,0 -0.268101,3.93336 -0.347266,4.26641 l -2.745052,1.48001 c -0.238375,0.12569 -0.346796,0.45095 -0.23151,0.69453 l 0.680286,5.41586 c 0.02757,0.0625 0.09133,0.10733 0.159435,0.11219 0.134933,0.0118 0.247045,-0.15815 0.183056,-0.27753 0,0 -0.351122,-4.25392 0.151311,-5.25879 0.11419,-0.35398 2.505274,-1.34772 2.505274,-1.34772 0.130264,-0.0694 0.228873,-0.19577 0.264583,-0.339 0,0 0.587444,-3.9309 0.768124,-4.5979 0.03525,-0.13013 0.0715,-0.66634 0.728426,-0.96662 0.246021,-0.11246 0.608993,-0.22731 0.967382,-0.31419 0.716779,-0.17376 1.422136,-0.26458 1.422136,-0.26458 0.271727,-0.0328 0.490628,-0.30647 0.463021,-0.57878 l -0.363802,-3.29075 c -0.0041,-0.0224 -0.0096,-0.0445 -0.01654,-0.0661 l -0.487825,-1.95957 1.515165,-2.93198 c 0.06023,-0.0808 0.06787,-0.19741 0.0187,-0.2854 -0.04917,-0.088 -0.152461,-0.14258 -0.252863,-0.13364 -0.07637,0.006 -0.149043,0.0482 -0.193085,0.11092 l -2.088369,2.82668 c -0.08933,0.12476 -0.120409,0.28948 -0.08268,0.43821 l 0.545703,2.19108 0.297656,2.72852 c -0.281747,0.0418 -0.498503,0.0625 -1.02526,0.19017 -0.395262,0.0958 -0.804079,0.21048 -1.157553,0.37207 -0.28051,0.12823 -1.729139,0.71783 -1.843815,0.75241 l -5.258594,-0.78548 -1.943034,-5.16765 c -0.0271,-0.37332 -0.19335,-0.64911 -0.380338,-1.02526 -0.209,-0.42042 -0.482554,-0.90135 -0.752409,-1.34772 -0.518232,-0.85721 -0.984902,-1.56083 -1.02526,-1.62057 -0.02395,-0.0964 -0.258074,-1.03958 -0.471289,-2.19935 -0.111922,-0.60879 -0.163995,-1.97841 -0.21064,-2.51675 -0.02895,-0.33416 0.804506,-1.60473 1.492215,-2.43592 0.72706,-0.87876 1.520133,-1.82389 1.951302,-2.74505 0.09781,-0.20897 0.636362,-0.80356 1.364258,-1.39733 0.727897,-0.59378 1.643291,-1.24681 2.538346,-1.85209 1.574973,-1.06507 2.886755,-1.85635 3.22461,-2.05879 0,0 2.539893,1.26737 2.89388,1.67845 0.479596,0.49102 2.083594,2.53008 2.083594,2.53008 0.0899,0.11323 0.227963,0.18686 0.37207,0.19844 0.107193,0.004 0.215493,-0.025 0.305925,-0.0827 l 3.943945,-2.31511 0.347266,3.31556 c 0.01909,0.16816 0.124207,0.32425 0.272851,0.40515 l 1.703256,0.93431 0.01613,3.60313 c -0.02997,0.16656 0.105609,0.34374 0.274211,0.35834 0.168602,0.0146 0.33263,-0.13662 0.33174,-0.30585 l 0.469321,-3.91194 c 0.01724,-0.20575 -0.09836,-0.41656 -0.28112,-0.51263 l -1.761132,-0.95911 -0.338998,-3.19981 c -0.01019,-0.10228 -0.05097,-0.20132 -0.115755,-0.28112 0.105891,-0.0824 0.178474,-0.20634 0.198437,-0.339 l 0.322461,-2.38951 2.257227,0.51556 c 0.116065,0.0584 0.275265,0.003 0.3301,-0.11471 0.05483,-0.11779 -0.0053,-0.27523 -0.124735,-0.32644 l -2.661029,-1.33945 c -0.299139,-0.14294 -0.707074,0.0767 -0.752409,0.40514 l -0.380339,2.85254 c 0,0 -3.161136,2.89785 -4.20026,2.46393 -0.54811,-0.20554 -1.852084,-2.24896 -1.852084,-2.24896 -0.04144,-0.05 -0.09217,-0.0923 -0.148828,-0.12402 0,0 -2.539874,-1.07678 -3.133659,-1.81901 -0.513852,-0.39966 -3.282487,-5.61413 -3.282487,-5.61413 -0.02175,-0.0495 -0.543407,-1.24476 -1.066601,-2.71198 -0.266925,-0.74855 -0.526997,-1.55257 -0.7028,-2.26549 -0.175802,-0.71292 -0.26143,-1.3514 -0.223242,-1.67018 0.03408,-0.28455 1.844559,-2.70545 2.133203,-3.15847 0.473891,-0.5624 4.629434,-2.08715 4.629434,-2.08715 0.283913,-0.0516 0.893795,-0.58345 0.968343,-0.81651 l 0.413226,-0.91626 0.760677,-0.84336 3.075781,1.53789 c 0.09876,0.0497 0.213334,0.0673 0.322461,0.0496 0,0 1.562955,-0.40282 1.918229,-0.30592 0.41987,0.25838 0.898912,1.02707 0.802019,1.44694 -0.01615,0.43601 -1.670183,2.24896 -1.670183,2.24896 -0.16791,0.22246 -0.116514,0.57828 0.107487,0.74414 l 4.336678,3.53118 c 0.04447,0.0342 0.09872,0.0556 0.154591,0.0609 0.12648,0.008 0.253791,-0.073 0.299432,-0.19123 0.04564,-0.11825 0.006,-0.26401 -0.09331,-0.34281 0,0 -3.542165,-2.76362 -3.639058,-3.58721 -0.08074,-0.67825 1.562695,-2.10013 1.562695,-2.10013 0.118262,-0.1628 0.131731,-0.39513 0.03307,-0.57051 0,0 -1.142954,-1.57781 -1.223698,-2.20762 -0.08074,-0.41987 0.493868,-4.25748 0.493868,-4.25748 0.03515,-0.10611 -0.0362,-0.23463 -0.144846,-0.26092 -0.108644,-0.0263 -0.230854,0.0554 -0.248097,0.16586 0,0 -0.739777,4.32735 -1.175795,4.3112 -0.371423,0.0969 -1.149931,0.41742 -1.521354,0.23978 -0.209935,-0.0969 -3.274219,-1.63711 -3.274219,-1.63711 -0.204286,-0.10273 -0.474114,-0.053 -0.628385,0.11576 l -1.124479,1.27331 c -0.05048,0.0519 -0.09015,0.1142 -0.115756,0.1819 0,0 -0.269576,0.46399 -0.634982,0.62386 -0.31973,0.13703 -2.573091,-0.19392 -2.573091,-0.19392 -0.153953,-0.37959 -0.441222,-0.68481 -0.760677,-0.93431 -0.429866,-0.33573 -0.937764,-0.58778 -1.438672,-0.80201 -0.805477,-0.34451 -1.311716,-0.45759 -1.5875,-0.52917 l -0.264583,-3.50573 c -0.01019,-0.10228 -0.05097,-0.20132 -0.115755,-0.28112 0,0 -2.70184,-3.55983 -3.571875,-4.69635 -0.01747,-0.12343 -0.08021,-0.23994 -0.173633,-0.32246 -0.0012,-0.0186 -6.09e-4,-0.025 0,-0.0496 0.0033,-0.13158 0.02921,-0.33106 0.09922,-0.57051 0.140022,-0.4789 0.412559,-1.10103 0.727604,-1.7446 0.630088,-1.28713 1.424857,-2.62261 1.752864,-3.44785 0.175607,-0.44181 0.369018,-1.2056 0.595313,-2.17454 0.226295,-0.96895 0.474145,-2.12418 0.702799,-3.26595 0.228655,-1.14178 0.439705,-2.25869 0.595313,-3.15847 0.115957,-0.6705 0.357202,-1.40494 0.567777,-1.64578 0.33115,-0.33115 3.202535,-1.7938 3.202535,-1.7938 0.08127,-0.0446 0.150472,-0.11087 0.198438,-0.19017 l 2.10013,-3.39824 1.852084,1.93476 c 0.08207,0.0812 0.191382,0.13437 0.305924,0.14883 l 2.455664,0.3638 c 0.391766,0.0293 0.538881,0.10457 0.648894,0.18229 l 1.368554,0.92147 c 0.0294,0.0225 0.06541,0.0363 0.102332,0.0391 0.08275,0.005 0.165538,-0.0499 0.193163,-0.1281 0.02763,-0.0782 -0.0023,-0.1729 -0.06976,-0.22103 l -1.184847,-1.16582 c 0,0 -0.0078,-1.81275 0.185971,-2.41833 0.258381,-0.58943 5.846359,-2.64571 5.846359,-2.64571 0.06855,-0.0208 0.11081,-0.10383 0.08732,-0.17152 -0.02349,-0.0677 -0.108092,-0.10665 -0.174802,-0.0805 l -6.217697,2.17416 c -0.183445,0.0612 -0.326184,0.23052 -0.355534,0.42168 0,0 -0.10235,1.42878 -0.524851,1.63432 -0.536691,0.2398 -2.030032,0.0689 -2.030032,0.0689 l -2.207617,-2.28203 c -0.223481,-0.22762 -0.658163,-0.1798 -0.826823,0.091 l -2.38125,3.84472 -2.310311,1.26934 c -0.490326,0.25442 -1.465189,-0.37755 -1.807267,-0.77324 -0.684157,-0.7914 -1.585748,-1.76186 -2.513542,-2.76159 -0.927793,-0.99973 -1.878205,-2.02889 -2.629297,-2.91042 -0.571985,-0.67131 -1.029452,-1.28986 -1.265042,-1.67018 0.10385,-0.0642 0.18425,-0.16544 0.22324,-0.28112 0.292173,-0.82253 1.162838,-1.28754 1.198899,-1.30638 l 1.943033,-0.47956 c 0.205291,-0.0512 0.370088,-0.2366 0.396875,-0.44648 l 0.24105,-5.1880498 c 0.04036,-0.20625 -0.156071,-0.42261 -0.365248,-0.4023 z"
         id="path7368"
         inkscape:connector-curvature="0"
         sodipodi:nodetypes="cccccccssscsssssscccsccssssssccccscccccssccsscccccscsscscscsscccccsccccccsscscsssscccsssscsccccccccsccsccccscccccccccccscsccsccscssccsscssccccccsccccccccccccccscsccccccsccccccsscccsscssssssccccccccccscccccccccscccccccccssscccccccccccccsccccccscccccccccssccccccssssssccccccccccsccccscccccccccsssccccccc" />
    </g>
  </g>
</svg>
