<?xml version="1.0" encoding="UTF-8" standalone="no"?>
<!-- Created with Inkscape (http://www.inkscape.org/) -->

<svg
   xmlns:dc="http://purl.org/dc/elements/1.1/"
   xmlns:cc="http://creativecommons.org/ns#"
   xmlns:rdf="http://www.w3.org/1999/02/22-rdf-syntax-ns#"
   xmlns:svg="http://www.w3.org/2000/svg"
   xmlns="http://www.w3.org/2000/svg"
   xmlns:sodipodi="http://sodipodi.sourceforge.net/DTD/sodipodi-0.dtd"
   xmlns:inkscape="http://www.inkscape.org/namespaces/inkscape"
   width="239.34741"
   height="210.39636"
   viewBox="0 0 63.327335 55.66737"
   version="1.1"
   id="svg23489"
   inkscape:version="0.48.5 r10040"
   sodipodi:docname="crack_04.svg"
   tags="cracks, crack effect, overlay, crack overlay, cracked, cracked effect">
  <defs
     id="defs23483" />
  <sodipodi:namedview
     id="base"
     pagecolor="#7d848b"
     bordercolor="#666666"
     borderopacity="1.0"
     inkscape:pageopacity="1"
     inkscape:pageshadow="2"
     inkscape:zoom="2.6602869"
     inkscape:cx="151.54728"
     inkscape:cy="102.10019"
     inkscape:document-units="px"
     inkscape:current-layer="layer1"
     showgrid="false"
     inkscape:pagecheckerboard="false"
     showborder="true"
     units="px"
     inkscape:window-width="1920"
     inkscape:window-height="1017"
     inkscape:window-x="-8"
     inkscape:window-y="-8"
     inkscape:window-maximized="1"
     inkscape:showpageshadow="false"
     guidetolerance="28"
     fit-margin-top="12"
     fit-margin-right="12"
     fit-margin-bottom="12"
     fit-margin-left="12">
    <inkscape:grid
       type="xygrid"
       id="grid24034"
       spacingx="1px"
       spacingy="1px"
       empspacing="8"
       visible="true"
       enabled="true"
       snapvisiblegridlinesonly="true"
       originx="-109.86048px"
       originy="-831.76112px" />
  </sodipodi:namedview>
  <metadata
     id="metadata23486">
    <rdf:RDF>
      <cc:Work
         rdf:about="">
        <dc:format>image/svg+xml</dc:format>
        <dc:type
           rdf:resource="http://purl.org/dc/dcmitype/StillImage" />
        <dc:title />
        <cc:license
           rdf:resource="" />
        <dc:creator>
          <cc:Agent>
            <dc:title>Robert Brooks</dc:title>
          </cc:Agent>
        </dc:creator>
      </cc:Work>
    </rdf:RDF>
  </metadata>
  <g
     inkscape:label="Layer 1"
     inkscape:groupmode="layer"
     id="layer1"
     transform="translate(-29.067252,-21.2625)">
    <path
       inkscape:connector-curvature="0"
       id="path6819"
       d="m 36.099492,54.742736 c -2.59468,3.16424 -4.30337,6.58162 -3.67052,6.01206 0.63285,-0.56957 3.7338,-3.92367 4.11351,-3.73381 0.37971,0.18986 3.29081,2.40482 3.98695,2.0884 0.69613,-0.31642 1.77198,-1.64541 2.02511,-1.32898 0.25314,0.31642 1.64541,1.01256 1.45555,1.51883 -0.18985,0.50628 -2.02511,2.27826 -2.08839,3.29082 -0.0633,1.01256 0.75941,4.05023 1.20241,4.24008 0.44299,0.18986 6.70819,-1.01256 7.27775,-0.8227 0.56957,0.18985 1.20242,0.37971 1.32899,0.69613 0.12657,0.31643 1.32898,2.72125 0.75942,3.22753 -0.56957,0.50628 -1.7087,1.07584 -1.64541,1.83526 0.0633,0.75942 0.56956,2.59468 0.56956,1.70869 0,-0.88599 -0.25314,-1.39227 0.31643,-1.64541 0.56956,-0.25313 2.02511,-0.88598 2.21497,-1.70869 0.18985,-0.8227 0.37971,-4.5565 0.18985,-5.06279 -0.18985,-0.50627 -1.51884,-1.13912 -1.45555,-1.45554 0.0633,-0.31643 0.56956,-1.07585 1.01256,-1.13913 0.44299,-0.0633 1.6454,-0.63285 1.77197,-0.25314 0.12657,0.37971 0.56957,1.26569 1.07585,1.51883 0.50627,0.25315 3.54395,-0.25314 3.03767,-0.3797 -0.50628,-0.12657 -1.83526,-0.37971 -2.02512,-0.63285 -0.18985,-0.25314 -0.37971,-1.13913 -0.37971,-1.45556 0,-0.31642 1.51884,-3.16424 1.96184,-3.03767 0.44299,0.12657 8.54345,6.58163 9.1763,6.01206 0.63285,-0.56956 6.07534,-4.30337 6.77148,-4.1768 0.69613,0.12657 4.05023,1.77198 4.61979,1.83526 0.56956,0.0633 1.39227,-0.37971 1.2657,-0.0633 -0.12657,0.31642 0.56956,1.77198 0.88598,2.0884 0.31643,0.31642 2.5314,0.88599 2.5314,0.88599 0,0 1.2657,-0.69614 1.77198,-0.69614 0.50627,0 2.53139,0.18986 1.83525,-0.25314 -0.69613,-0.44299 -2.34153,-1.39226 -3.29081,-1.07584 -0.94927,0.31643 -1.13912,0.75942 -1.13912,0.0633 0,-0.69613 -0.31643,-2.15168 0,-2.59467 0.31642,-0.443 1.20241,-2.15169 1.58212,-2.5314 0.37971,-0.3797 3.98694,-2.34153 3.54395,-2.34153 -0.443,0 -3.41738,0.75941 -3.67052,0.94927 -0.25314,0.18985 -3.10096,3.48066 -3.10096,3.48066 0,0 -1.51884,0.82271 -1.70869,0.75942 -0.18986,-0.0633 -3.67052,-1.01255 -3.73381,-1.51884 -0.0633,-0.50627 0,-2.72124 0,-2.72124 0,0 -2.0884,-1.89855 -2.27825,-2.21497 -0.18986,-0.31643 -0.0633,-1.77198 -0.12657,-2.0884 -0.0633,-0.31643 -0.82271,2.53139 -0.82271,2.53139 l 2.21497,2.21497 c 0,0 0.18986,1.58212 -0.0633,1.70869 -0.25314,0.12657 -7.34104,3.79709 -7.34104,3.79709 l -9.1763,-6.2652 c 0,0 0.31642,-4.74636 0.31642,-5.88549 0,-1.13912 -1.64541,-3.54395 -1.58212,-4.49322 0.0633,-0.94928 2.78453,-2.78454 2.72125,-3.48067 -0.0633,-0.69613 -0.88599,-3.03767 -0.82271,-3.60723 0.0633,-0.56957 1.70869,-3.22753 1.20242,-2.84782 -0.50628,0.3797 -2.65797,2.34153 -2.59468,2.97438 0.0633,0.63285 0.63285,3.79709 0.37971,3.86038 -0.25314,0.0633 -2.5314,3.03767 -2.46811,3.3541 0.0633,0.31642 0.25314,0.8227 0.25314,0.8227 0,0 -0.443,-0.12657 -1.7087,-0.25314 -1.26569,-0.12657 -4.42993,-0.37971 -4.55651,0.44299 -0.12656,0.82271 0.69614,2.84782 0.12658,3.29082 -0.56957,0.44299 -2.97439,1.20241 -3.03768,1.70869 -0.0633,0.50628 0,3.41738 0.18986,2.78453 0.18985,-0.63285 0.31642,-2.15168 0.63285,-2.15168 0.31642,0 3.48066,-1.20242 3.48066,-1.64541 0,-0.443 -0.94927,-2.9111 -0.18985,-2.97439 0.75941,-0.0633 4.36665,-0.63285 4.61979,-0.18985 0.25314,0.44299 2.02512,2.02511 2.0884,2.72124 0.0633,0.69614 0.56957,4.49323 0.50628,5.18936 -0.0633,0.69614 -2.53139,4.6198 -2.78453,4.80965 -0.25314,0.18986 -3.73381,0.75942 -3.73381,0.75942 l -1.39226,2.97439 -6.64491,1.01256 -1.2657,-3.03768 2.21497,-3.79709 -1.96183,-2.65796 -2.78453,1.51884 z"
       style="opacity:0.25000000000000000;color:#000000;fill:#b4bdcb;fill-opacity:1;fill-rule:nonzero;stroke:#dbdee3;stroke-width:0;stroke-linejoin:round;stroke-miterlimit:4;stroke-opacity:1;stroke-dasharray:none;marker:none;visibility:visible;display:inline;overflow:visible;enable-background:accumulate"
       gds_zero_stroke="1"
       gds_color="highlight" />
    <g
       id="g7498"
       gds_color="crack">
      <path
         gds_zero_stroke="1"
         style="font-size:medium;font-style:normal;font-variant:normal;font-weight:normal;font-stretch:normal;text-indent:0;text-align:start;text-decoration:none;line-height:normal;letter-spacing:normal;word-spacing:normal;text-transform:none;direction:ltr;block-progression:tb;writing-mode:lr-tb;text-anchor:start;baseline-shift:baseline;color:#000000;fill:#000000;fill-opacity:1;stroke:#31314e;stroke-width:0;stroke-linejoin:round;stroke-miterlimit:4;stroke-opacity:1;stroke-dasharray:none;marker:none;visibility:visible;display:inline;overflow:visible;enable-background:accumulate;font-family:Sans;-inkscape-font-specification:Sans"
         d="m 59.613342,24.496196 c -0.17108,0.006 -0.42624,1.11531 -0.45104,1.25785 l -0.50962,3.14256 c -0.0104,0.0508 -0.0147,0.10333 -0.01,0.15494 l 0.17431,1.68499 -0.89602,3.04263 c -0.0735,0.24122 0.0154,0.5253 0.21766,0.6759 l 1.66493,0.95028 c 0.12657,0.56956 -1.61689,2.98891 -1.61689,2.98891 l -0.16038,0.21766 0.0573,0.26348 0.10088,3.15197 c 0,0 -1.71138,3.96452 -3.33474,3.83591 -0.67947,-0.0538 -4.95218,0.1496 -5.2686,0.40274 -0.34807,0.31642 0.37971,3.53763 0,4.04391 -0.37971,0.50627 -2.65775,1.27159 -2.65775,1.27159 0,0 0.25147,3.04024 0.37804,2.02768 0.12657,-1.01256 -0.19152,-1.64797 0.31476,-1.77454 0.50628,-0.12657 3.22564,-0.89188 3.09908,-1.52473 -0.12658,-0.63285 -0.57012,-2.81263 -0.19041,-3.1607 0.31642,-0.41135 5.12787,-10e-4 5.12787,-10e-4 l 0.33221,-0.16038 c 0,0 1.54382,2.16398 1.79696,3.11326 0.15821,0.85434 0.28255,4.09068 0.21927,5.79937 -0.0633,0.63285 -2.62338,4.10118 -2.62338,4.10118 l -3.44821,0.4926 c -0.19441,0.0272 -0.37955,0.15784 -0.46969,0.33222 l -1.55799,3.01289 -5.72791,0.84773 -1.04248,-2.26826 2.27971,-3.75751 c 0.1303,-0.21847 0.10652,-0.52709 -0.0573,-0.72171 l -2.02768,-2.44009 c -0.17918,-0.22049 -0.51734,-0.295 -0.76754,-0.16039 l -2.26825,1.23723 -3.95226,-2.08496 c -0.0909,-0.0503 -0.19392,-0.0687 -0.29785,-0.0687 -0.18738,0.004 -0.3699,0.0897 -0.48115,0.24057 l -2.48411,3.83769 c -0.11694,0.15464 -0.0809,0.40371 0.0751,0.51882 0.156,0.11511 0.40556,0.0754 0.51882,-0.0819 0,0 1.95345,-3.05428 2.55465,-3.11756 0.50628,-0.0949 3.79188,1.99331 3.79188,1.99331 0.17717,0.094 0.40707,0.094 0.58425,0 l 2.11932,-1.14558 c 0,0 1.2825,0.92731 1.40907,1.71837 0.0949,0.82271 -2.22243,3.67732 -2.22243,3.67732 -0.10627,0.17471 -0.12297,0.39996 -0.0344,0.58425 l 1.38615,2.97851 c 0.11271,0.23997 0.39117,0.38537 0.65299,0.34368 l 6.49545,-0.95084 c 0.0275,-0.004 0.0536,-0.0148 0.0802,-0.0229 1.01247,0.78263 1.81492,0.73654 1.81491,1.26771 0,1.2657 0.0638,3.41772 0.0638,3.41772 l -2.15369,1.63819 c 0,0 1.00867,1.77899 0.8821,1.01956 -0.12657,-0.75941 0.64152,-1.14558 0.64152,-1.14558 0,0 1.63874,-0.87932 1.51217,-1.51217 -0.12657,-0.63285 0.12602,-3.92934 0.12602,-3.92934 l -2.11933,-1.84439 1.16849,-2.24534 3.1389,-0.44678 c 0.42708,0.56355 1.21432,1.56945 1.21432,1.56945 l 1.15703,0.53842 3.00143,0.35513 -2.72649,-0.84773 c 0,0 -1.21646,-0.66873 -1.30596,-0.84773 -0.056,-0.11197 -0.31743,-0.67571 -0.56134,-1.20286 l 2.46301,-3.87207 9.0501,6.0945 c 0.18556,0.12363 0.44552,0.12918 0.64152,0.0229 0,0 5.61981,-3.75206 6.75894,-3.68877 1.20241,0.12657 4.63961,1.91312 4.63961,1.91312 0.1465,0.0593 0.31173,0.0593 0.45823,0 l 1.13413,-0.46969 0.58424,2.58902 c 0.0563,0.24273 0.27992,0.43717 0.52697,0.46968 l 1.59236,0.21766 c 0.13534,0.019 0.27124,-2.3e-4 0.3895,-0.0687 l 1.1914,-0.68735 2.89193,1.66567 c 0.16358,0.1153 0.41933,0.0578 0.51384,-0.11858 0.0945,-0.17642 0.002,-0.42836 -0.18446,-0.50067 l -2.93491,-2.2951 c -0.18349,-0.0978 -0.41546,-0.0922 -0.5957,0.0114 l -1.31742,0.74463 -0.96229,-0.12601 -0.5957,-2.62339 2.15369,-3.09307 3.23827,-1.08475 c 0.19046,-0.0322 0.32723,-0.24418 0.28645,-0.433 -0.0408,-0.18881 -0.25288,-0.31571 -0.43967,-0.26646 l -3.57765,0.62717 c -0.15065,0.0326 -0.29001,0.12552 -0.37804,0.25203 l -2.33699,3.36801 -1.40907,0.58425 c 0,0 -4.02588,-1.10844 -4.21574,-1.74128 0.16069,-0.41167 -0.0404,-0.6583 0.12435,-0.93282 0.37971,-0.63285 -2.27804,-2.72159 -2.27804,-2.72159 l 0,-1.52363 c 0,-0.50627 1.01901,-1.6463 1.14558,-2.40572 0.12657,-0.75942 -1.90167,1.26937 -1.90167,1.77565 0,0.50628 -0.37859,1.77343 -0.25203,2.27971 0.12657,0.50628 2.02657,1.2022 2.27971,2.34133 0.18986,0.8227 -0.1943,0.81548 -0.48114,1.24434 0,0 -4.86806,3.56332 -6.45019,2.99376 -1.20241,-0.37971 -8.37143,-4.66787 -8.8777,-5.61714 -0.56957,-0.75942 -0.4926,-5.86538 -0.4926,-5.86538 l -0.0114,-0.11456 -0.0573,-0.1031 c 0,0 -1.82693,-2.6582 -1.89021,-3.86061 0.0633,-0.82271 2.5661,-3.18472 2.5661,-3.18472 l 0.17184,-0.21766 -0.0458,-0.27494 c 0,0 -0.3022,-2.72043 -0.36548,-3.22671 -0.0316,-0.69613 1.77454,-3.00526 1.77454,-3.00526 0.007,-0.006 0.0166,-0.0164 0.0229,-0.0229 l 0.0229,-0.0229 c 0.22485,-0.25648 0.17067,-0.70158 -0.10311,-0.90501 l -1.59236,-1.17995 0.62801,-2.77231 c 0.0187,-0.0659 0.0177,-0.1353 0.01,-0.20336 l -0.16462,-1.74309 0.099,-3.12516 c 0.0391,-0.18791 0.0524,-1.39006 -0.17447,-1.38177 z"
         id="path6817"
         inkscape:connector-curvature="0"
         sodipodi:nodetypes="ccccccccccccscscsssccccccccccccccccccccsccccccccccccsccscscccccccccccccccccccccccsccccccccsccccccscssssccccccccccccccccccccccc" />
      <path
         sodipodi:nodetypes="ccccccccccccscscsssccccccccccccccccccccsccccccccccccsccscscccccccccccccccccccccccsccccccccsccccccscssssccccccccccccccccccccccc"
         inkscape:connector-curvature="0"
         id="path6728"
         d="m 59.613342,24.496196 c -0.17108,0.006 -0.42624,1.11531 -0.45104,1.25785 l -0.50962,3.14256 c -0.0104,0.0508 -0.0147,0.10333 -0.01,0.15494 l 0.17431,1.68499 -0.89602,3.04263 c -0.0735,0.24122 0.0154,0.5253 0.21766,0.6759 l 1.66493,0.95028 c 0.12657,0.56956 -1.61689,2.98891 -1.61689,2.98891 l -0.16038,0.21766 0.0573,0.26348 0.10088,3.15197 c 0,0 -1.71138,3.96452 -3.33474,3.83591 -0.67947,-0.0538 -4.95218,0.1496 -5.2686,0.40274 -0.34807,0.31642 0.37971,3.53763 0,4.04391 -0.37971,0.50627 -2.65775,1.27159 -2.65775,1.27159 0,0 0.25147,3.04024 0.37804,2.02768 0.12657,-1.01256 -0.19152,-1.64797 0.31476,-1.77454 0.50628,-0.12657 3.22564,-0.89188 3.09908,-1.52473 -0.12658,-0.63285 -0.57012,-2.81263 -0.19041,-3.1607 0.31642,-0.41135 5.12787,-10e-4 5.12787,-10e-4 l 0.33221,-0.16038 c 0,0 1.54382,2.16398 1.79696,3.11326 0.15821,0.85434 0.28255,4.09068 0.21927,5.79937 -0.0633,0.63285 -2.62338,4.10118 -2.62338,4.10118 l -3.44821,0.4926 c -0.19441,0.0272 -0.37955,0.15784 -0.46969,0.33222 l -1.55799,3.01289 -5.72791,0.84773 -1.04248,-2.26826 2.27971,-3.75751 c 0.1303,-0.21847 0.10652,-0.52709 -0.0573,-0.72171 l -2.02768,-2.44009 c -0.17918,-0.22049 -0.51734,-0.295 -0.76754,-0.16039 l -2.26825,1.23723 -3.95226,-2.08496 c -0.0909,-0.0503 -0.19392,-0.0687 -0.29785,-0.0687 -0.18738,0.004 -0.3699,0.0897 -0.48115,0.24057 l -2.48411,3.83769 c -0.11694,0.15464 -0.0809,0.40371 0.0751,0.51882 0.156,0.11511 0.40556,0.0754 0.51882,-0.0819 0,0 1.95345,-3.05428 2.55465,-3.11756 0.50628,-0.0949 3.79188,1.99331 3.79188,1.99331 0.17717,0.094 0.40707,0.094 0.58425,0 l 2.11932,-1.14558 c 0,0 1.2825,0.92731 1.40907,1.71837 0.0949,0.82271 -2.22243,3.67732 -2.22243,3.67732 -0.10627,0.17471 -0.12297,0.39996 -0.0344,0.58425 l 1.38615,2.97851 c 0.11271,0.23997 0.39117,0.38537 0.65299,0.34368 l 6.49545,-0.95084 c 0.0275,-0.004 0.0536,-0.0148 0.0802,-0.0229 1.01247,0.78263 1.81492,0.73654 1.81491,1.26771 0,1.2657 0.0638,3.41772 0.0638,3.41772 l -2.15369,1.63819 c 0,0 1.00867,1.77899 0.8821,1.01956 -0.12657,-0.75941 0.64152,-1.14558 0.64152,-1.14558 0,0 1.63874,-0.87932 1.51217,-1.51217 -0.12657,-0.63285 0.12602,-3.92934 0.12602,-3.92934 l -2.11933,-1.84439 1.16849,-2.24534 3.1389,-0.44678 c 0.42708,0.56355 1.21432,1.56945 1.21432,1.56945 l 1.15703,0.53842 3.00143,0.35513 -2.72649,-0.84773 c 0,0 -1.21646,-0.66873 -1.30596,-0.84773 -0.056,-0.11197 -0.31743,-0.67571 -0.56134,-1.20286 l 2.46301,-3.87207 9.0501,6.0945 c 0.18556,0.12363 0.44552,0.12918 0.64152,0.0229 0,0 5.61981,-3.75206 6.75894,-3.68877 1.20241,0.12657 4.63961,1.91312 4.63961,1.91312 0.1465,0.0593 0.31173,0.0593 0.45823,0 l 1.13413,-0.46969 0.58424,2.58902 c 0.0563,0.24273 0.27992,0.43717 0.52697,0.46968 l 1.59236,0.21766 c 0.13534,0.019 0.27124,-2.3e-4 0.3895,-0.0687 l 1.1914,-0.68735 2.89193,1.66567 c 0.16358,0.1153 0.41933,0.0578 0.51384,-0.11858 0.0945,-0.17642 0.002,-0.42836 -0.18446,-0.50067 l -2.93491,-2.2951 c -0.18349,-0.0978 -0.41546,-0.0922 -0.5957,0.0114 l -1.31742,0.74463 -0.96229,-0.12601 -0.5957,-2.62339 2.15369,-3.09307 3.23827,-1.08475 c 0.19046,-0.0322 0.32723,-0.24418 0.28645,-0.433 -0.0408,-0.18881 -0.25288,-0.31571 -0.43967,-0.26646 l -3.57765,0.62717 c -0.15065,0.0326 -0.29001,0.12552 -0.37804,0.25203 l -2.33699,3.36801 -1.40907,0.58425 c 0,0 -4.02588,-1.10844 -4.21574,-1.74128 0.16069,-0.41167 -0.0404,-0.6583 0.12435,-0.93282 0.37971,-0.63285 -2.27804,-2.72159 -2.27804,-2.72159 l 0,-1.52363 c 0,-0.50627 1.01901,-1.6463 1.14558,-2.40572 0.12657,-0.75942 -1.90167,1.26937 -1.90167,1.77565 0,0.50628 -0.37859,1.77343 -0.25203,2.27971 0.12657,0.50628 2.02657,1.2022 2.27971,2.34133 0.18986,0.8227 -0.1943,0.81548 -0.48114,1.24434 0,0 -4.86806,3.56332 -6.45019,2.99376 -1.20241,-0.37971 -8.37143,-4.66787 -8.8777,-5.61714 -0.56957,-0.75942 -0.4926,-5.86538 -0.4926,-5.86538 l -0.0114,-0.11456 -0.0573,-0.1031 c 0,0 -1.82693,-2.6582 -1.89021,-3.86061 0.0633,-0.82271 2.5661,-3.18472 2.5661,-3.18472 l 0.17184,-0.21766 -0.0458,-0.27494 c 0,0 -0.3022,-2.72043 -0.36548,-3.22671 -0.0316,-0.69613 1.77454,-3.00526 1.77454,-3.00526 0.007,-0.006 0.0166,-0.0164 0.0229,-0.0229 l 0.0229,-0.0229 c 0.22485,-0.25648 0.17067,-0.70158 -0.10311,-0.90501 l -1.59236,-1.17995 0.62801,-2.77231 c 0.0187,-0.0659 0.0177,-0.1353 0.01,-0.20336 l -0.16462,-1.74309 0.099,-3.12516 c 0.0391,-0.18791 0.0524,-1.39006 -0.17447,-1.38177 z"
         style="font-size:medium;font-style:normal;font-variant:normal;font-weight:normal;font-stretch:normal;text-indent:0;text-align:start;text-decoration:none;line-height:normal;letter-spacing:normal;word-spacing:normal;text-transform:none;direction:ltr;block-progression:tb;writing-mode:lr-tb;text-anchor:start;baseline-shift:baseline;color:#000000;fill:#31314e;fill-opacity:1;stroke:none;stroke-width:4;marker:none;visibility:visible;display:inline;overflow:visible;enable-background:accumulate;font-family:Sans;-inkscape-font-specification:Sans" />
    </g>
  </g>
</svg>
