<?xml version="1.0" encoding="UTF-8" standalone="no"?>
<!-- Created with Inkscape (http://www.inkscape.org/) -->

<svg
   xmlns:dc="http://purl.org/dc/elements/1.1/"
   xmlns:cc="http://creativecommons.org/ns#"
   xmlns:rdf="http://www.w3.org/1999/02/22-rdf-syntax-ns#"
   xmlns:svg="http://www.w3.org/2000/svg"
   xmlns="http://www.w3.org/2000/svg"
   xmlns:sodipodi="http://sodipodi.sourceforge.net/DTD/sodipodi-0.dtd"
   xmlns:inkscape="http://www.inkscape.org/namespaces/inkscape"
   width="272.85376"
   height="257.45596"
   viewBox="0 0 72.192556 68.118556"
   version="1.1"
   id="svg23489"
   inkscape:version="0.48.5 r10040"
   sodipodi:docname="crack_03.svg"
   tags="cracks, crack effect, overlay, crack overlay, cracked, cracked effect">
  <defs
     id="defs23483" />
  <sodipodi:namedview
     id="base"
     pagecolor="#7d848b"
     bordercolor="#666666"
     borderopacity="1.0"
     inkscape:pageopacity="1"
     inkscape:pageshadow="2"
     inkscape:zoom="3.762214"
     inkscape:cx="207.87753"
     inkscape:cy="24.415766"
     inkscape:document-units="px"
     inkscape:current-layer="layer1"
     showgrid="false"
     inkscape:pagecheckerboard="false"
     showborder="true"
     units="px"
     inkscape:window-width="1920"
     inkscape:window-height="1017"
     inkscape:window-x="-8"
     inkscape:window-y="-8"
     inkscape:window-maximized="1"
     inkscape:showpageshadow="false"
     guidetolerance="28"
     fit-margin-top="12"
     fit-margin-right="12"
     fit-margin-bottom="12"
     fit-margin-left="12">
    <inkscape:grid
       type="xygrid"
       id="grid24034"
       spacingx="1px"
       spacingy="1px"
       empspacing="8"
       visible="true"
       enabled="true"
       snapvisiblegridlinesonly="true"
       originx="235.25396px"
       originy="-779.38726px" />
  </sodipodi:namedview>
  <metadata
     id="metadata23486">
    <rdf:RDF>
      <cc:Work
         rdf:about="">
        <dc:format>image/svg+xml</dc:format>
        <dc:type
           rdf:resource="http://purl.org/dc/dcmitype/StillImage" />
        <dc:title />
        <cc:license
           rdf:resource="" />
        <dc:creator>
          <cc:Agent>
            <dc:title>Robert Brooks</dc:title>
          </cc:Agent>
        </dc:creator>
      </cc:Work>
    </rdf:RDF>
  </metadata>
  <g
     inkscape:label="Layer 1"
     inkscape:groupmode="layer"
     id="layer1"
     transform="translate(62.244276,-22.668567)">
    <path
       style="opacity:0.25000000000000000;color:#000000;fill:#c5d1e5;fill-opacity:1;stroke:#dbdee3;stroke-width:0;stroke-linejoin:round;stroke-miterlimit:4;stroke-opacity:1;stroke-dasharray:none;marker:none;visibility:visible;display:inline;overflow:visible;enable-background:accumulate"
       d="m -58.809541,69.211653 c 2.26665,0.64762 12.41264,0.10798 12.41264,0.10798 0,0 1.5111,-2.48253 2.15872,-2.05078 0.64761,0.43174 2.48253,1.40316 2.91426,0.53967 0.43175,-0.86348 0.10798,-2.48252 1.1873,-2.80632 1.07937,-0.32382 2.37459,-0.75557 3.02221,-0.53969 0.64761,0.21587 9.71424,2.91428 10.25391,3.45395 0.53969,0.53968 6.04442,5.61267 6.36823,6.79996 0.3238,1.1873 2.15872,4.96506 2.05078,5.72061 -0.10798,0.75555 -9.17456,5.28886 -7.01583,4.42538 2.15871,-0.86349 8.09519,-3.34602 8.419,-4.20951 0.32381,-0.86349 0.53968,-3.66981 1.72697,-3.13014 1.1873,0.53968 3.66983,1.07937 4.85712,2.48253 1.1873004,1.40316 4.8571204,4.31743 4.3174404,3.56188 -0.53967,-0.75555 -1.5111,-2.80633 -0.86349,-3.88569 0.64761,-1.07935 1.94284,-3.77776 3.13014,-3.77776 1.18729,0 7.87932,-0.75555 7.01584,-0.64761 -0.86349,0.10797 -7.87933,-1.5111 -8.31106,-0.86349 -0.43175,0.64762 -4.10157,4.42537 -4.10157,4.42537 l -3.9936304,-2.91427 c 0,0 -2.34801,-1.94127 -2.13213,-2.80476 0.21587,-0.86349 2.26876,-4.34877 2.59256,-5.42812 0.32381,-1.07936 1.37447,-4.28769 0.51098,-2.56072 -0.86349,1.72698 -6.15234,8.0952 -6.15234,8.0952 l -7.98726,-7.66345 c 0,0 -8.41901,-1.5111 -8.63487,-2.6984 -0.21588,-1.18729 4.20949,-4.10157 4.42536,-6.04441 0.21588,-1.94285 -0.97142,-5.07299 0.10798,-5.18093 1.07935,-0.10798 9.6063,-2.48253 9.9301,-3.23808 0.32382,-0.75555 2.15873,-3.66983 2.80634,-3.56189 0.64762,0.10798 1.83492,-0.43174 1.83492,0.21588 0,0.64761 -0.64763,3.45395 -0.21588,3.99363 0.43174,0.53967 2.48253,2.15871 2.37459,2.80634 -0.10798,0.64761 -0.97142,4.74918 -1.1873,7.12377 -0.21586,2.37459 -0.10797,5.61267 0.53969,3.13014 0.64761,-2.48253 0.86349,-3.88569 1.5111,-5.07299 0.64761,-1.18729 2.69841,-3.56189 3.5618904,-4.10157 0.86348,-0.53968 6.47616,-4.53331 7.66345,-4.53331 1.18730001,0 5.39679,-0.10798 6.04442,-0.64761 0.64761,-0.53969 2.26665,-4.96506 1.5111,-3.77777 -0.75555,1.1873 -2.6984,2.59047 -2.6984,2.59047 0,0 -4.64125,-0.64762 -5.50473,0.10798 -0.86349,0.75555 -8.6348804,5.61267 -9.2825004,5.28885 -0.64762,-0.3238 -2.26666,-2.80633 -2.15872,-3.66981 0.10798,-0.86349 0.32381,-3.77776 0.75555,-4.42538 0.43174,-0.64762 2.26666,-2.91427 2.37459,-3.66982 0.10798,-0.75555 -5.28885,-8.0952 -5.18093,-6.79997 0.10798,1.29524 3.56189,6.15236 3.34602,6.79997 -0.21587,0.64761 -2.37459,3.66982 -2.37459,3.66982 l -3.88569,-0.21587 c 0,0 -2.69841,3.66982 -3.23808,3.8857 -0.53968,0.21587 -10.228515,2.511469 -10.444375,2.943209 -0.21587,0.43175 0.190465,6.015471 0.190465,6.015471 l -5.116723,5.815144 -3.518157,1.200686 -1.72697,2.59047 -2.15873,-0.64761 -2.05078,2.15871 z"
       id="path6815"
       inkscape:connector-curvature="0"
       sodipodi:nodetypes="ccssssssssssssssssccsssccssssssscssssssscsssssssccssccccccc"
       gds_zero_stroke="1"
       gds_color="highlight" />
    <g
       id="g7502"
       gds_color="crack">
      <path
         gds_zero_stroke="1"
         style="font-size:medium;font-style:normal;font-variant:normal;font-weight:normal;font-stretch:normal;text-indent:0;text-align:start;text-decoration:none;line-height:normal;letter-spacing:normal;word-spacing:normal;text-transform:none;direction:ltr;block-progression:tb;writing-mode:lr-tb;text-anchor:start;baseline-shift:baseline;color:#000000;fill:#31314e;fill-opacity:1;stroke:#31314e;stroke-width:0;stroke-linejoin:round;stroke-miterlimit:4;stroke-opacity:1;stroke-dasharray:none;marker:none;visibility:visible;display:inline;overflow:visible;enable-background:accumulate;font-family:Sans;-inkscape-font-specification:Sans"
         d="m -19.626131,25.882783 c -0.10635,0.0134 -0.17767,0.14637 -0.12995,0.24233 0,0 1.16252,2.65963 1.59041,3.57556 0.21396,0.45799 1.58595,3.848 1.97274,4.63685 0.38679,0.78886 0.6913,1.38864 0.89877,1.69986 0.62205,0.93308 2.88555,3.12699 2.83309,4.04448 0,0.95403 -2.54001,3.29225 -2.54001,3.29225 l -3.51694,-0.40054 c -0.15116,-0.0188 -0.30991,0.0418 -0.4103,0.15631 l -3.13595,3.55602 -8.74892,2.2734 c -0.90629,0.33036 -2.66417,-0.0388 -2.94491,-0.41724 -0.56147,-0.757 -1.27314,-1.76147 -1.97339,-2.7647 -1.40051,-2.0065 -4.09438,-5.48845 -4.09438,-5.48845 -0.0714,-0.1071 -0.20584,-0.1685 -0.33352,-0.15228 -0.23764,0.0273 -0.3826,0.34711 -0.24654,0.54382 0,0 2.49683,3.62009 3.90266,5.63421 0.70291,1.00707 1.42108,2.01328 1.99293,2.78425 0.28593,0.38548 0.89432,1.12472 1.14487,1.93895 0.14704,0.47786 0.2541,1.22989 0.301,1.91991 0.0469,0.69 0.0851,1.39374 0.11723,1.95385 0.0161,0.28006 0.0343,0.52095 0.0488,0.71315 0.01,0.12936 0.0163,0.21185 0.0293,0.30285 -0.0201,0.0433 -0.0504,0.11999 -0.10747,0.21493 -0.12049,0.20029 -0.3153,0.48187 -0.54708,0.81085 -0.46357,0.65797 -1.10003,1.50092 -1.73893,2.33485 -1.19941,1.56553 -1.63856,1.80756 -2.74332,2.65488 -1.32223,0.6746 -3.11826,1.22353 -3.11826,1.22353 -0.12611,0.0288 -0.23871,0.11236 -0.30285,0.22469 l -1.31884,2.2567 -1.90502,-0.63499 c -0.17783,-0.0586 -0.38866,0.002 -0.508,0.14653 0,0 -0.45326,0.5307 -0.95739,1.07463 -0.25206,0.27196 -0.52424,0.54824 -0.74247,0.75223 -0.10911,0.10198 -0.20278,0.18084 -0.27354,0.23446 -0.0707,0.0537 -0.13536,0.0704 -0.0488,0.0488 0.0196,-0.005 -0.17691,0.0318 -0.42009,0.0684 -0.24316,0.0367 -0.57451,0.0829 -0.95739,0.13677 -0.76573,0.10772 -1.75364,0.2461 -2.74516,0.38101 -0.99152,0.13488 -6.14611,0.55195 -6.60461,0.61534 -0.45852,0.0634 -0.76738,0.10197 -0.88799,0.12603 -0.14666,0.0225 -0.25735,0.18092 -0.22796,0.32633 0.0294,0.14543 0.19294,0.24846 0.3368,0.21219 0.0377,-0.008 0.39632,-0.0571 0.85362,-0.12036 0.45731,-0.0632 5.66534,-0.0966 6.65715,-0.23151 0.99179,-0.13494 1.97619,-0.27284 2.74516,-0.381 0.38449,-0.0541 0.7183,-0.0992 0.96716,-0.13678 0.24886,-0.0375 0.38045,-0.056 0.50801,-0.0879 0.19446,-0.0487 0.27852,-0.12012 0.39077,-0.20516 0.11223,-0.0851 0.22806,-0.18729 0.35169,-0.30285 0.24725,-0.23112 0.52091,-0.51986 0.78154,-0.80108 0.4093,-0.4416 0.63012,-0.7046 0.77178,-0.86947 l 1.9734,0.66432 c 0.2046,0.0682 0.45106,-0.027 0.55683,-0.21492 l 1.40678,-2.41301 c 0,0 2.18638,-0.6471 3.18479,-0.67409 0.5127,0.13493 10.9416,2.73539 10.9416,2.73539 0,0 7.43009,7.30472 7.59861,8.71097 0,0 -0.13488,4.73896 -0.13488,5.27863 -0.10797,0.70159 -11.76122,7.05482 -11.76122,7.05482 -0.11824,0.0593 -0.16405,0.22846 -0.092,0.33933 0.0721,0.11086 0.24527,0.13766 0.34745,0.0537 l 12.20916,-6.78351 c 0.11999,-0.0764 0.20163,-0.21008 0.21491,-0.35171 0,0 0.57641,-5.2186 1.17005,-5.43446 0.4857,-0.26985 3.43541,1.15268 4.75762,2.09712 0.6746,0.64763 2.3043504,1.85462 2.9991904,2.82149 l 2.63998,3.88627 c 0.11949,0.15533 0.3427,0.22144 0.52755,0.15631 l 9.84783,0.27618 c 0.12547,-0.0328 0.20661,-0.18176 0.16601,-0.30492 -0.0407,-0.12312 -0.19446,-0.19471 -0.3148,-0.1464 l -9.67948,-0.82133 -1.95846,-2.52133 c -0.52456,-0.61061 -0.56589,-1.09243 -0.34151,-1.3906 0,0 2.40874,-3.87157 3.56905,-4.22237 1.3492,-0.3238 8.04484,1.23145 8.04484,1.23145 0.17627,0.0518 0.3831,-0.0773 0.41393,-0.2585 0.0308,-0.18112 -0.12161,-0.37144 -0.3051,-0.3809 l -8.21229,-1.54944 c -0.13305,-0.0244 -0.27611,0.0125 -0.38099,0.0977 l -3.61373,4.53919 -3.4778604,-2.49117 c -0.0213,-0.0183 -0.0442,-0.0347 -0.0684,-0.0488 l -4.16817,-2.57027 c -0.32381,-1.02539 4.56871,-7.86332 4.56871,-7.86332 0.10797,-0.16218 0.0997,-0.39302 -0.0195,-0.54708 l -2.69632,-3.41925 0.51776,-4.55248 c 0,0 2.83202,-3.96527 3.19457,-4.3278 0.38159,-0.7823 8.8998104,-5.50989 8.8998104,-5.50989 l 5.69548,-0.10747 c 0.13368,-0.003 0.26538,-0.0641 0.3517,-0.16608 l 2.75216,-3.78072 c 0.0582,-0.0676 0.0698,-0.17148 0.0279,-0.25023 -0.0419,-0.0787 -0.13449,-0.12723 -0.22305,-0.11673 -0.0563,0.009 -0.1091,0.0388 -0.14402,0.0836 l -2.9894,3.29233 -5.61734,0.10748 c -0.0856,-7e-5 -0.17111,0.0239 -0.24424,0.0684 0,0 -7.8462504,5.42149 -8.7239704,5.40241 -1.06851,0 -2.7218,-2.92361 -2.96986,-3.43879 -0.49608,-1.29748 0,-4.04449 0,-4.04449 -3e-4,-0.0782 -0.0208,-0.15624 -0.0586,-0.22468 l 2.76471,-3.58534 c 0.12532,-0.15947 0.12951,-0.40289 0.01,-0.56661 0,0 -2.37911,-3.35374 -3.00894,-4.29849 -0.11636,-0.17449 -0.45791,-0.8128 -0.84015,-1.59239 -0.38225,-0.77959 -2.17919,-3.96823 -2.39242,-4.4247 -0.42649,-0.91292 -1.70185,-3.51788 -1.70185,-3.51788 -0.0266,-0.0622 -0.094,-0.1046 -0.16154,-0.10185 -0.006,-2.1e-4 -0.0113,-2.1e-4 -0.0176,0 z m 1.24488,18.04818 c 0.47702,-0.1908 2.91857,-0.18211 3.24294,0.23767 0.22897,0.32436 -0.0191,3.41619 0.0955,4.19849 0.0971,0.98824 2.66075,3.06817 2.71799,3.86957 0.0382,1.03035 -2.74455,4.30641 -2.74455,4.30641 -0.0482,0.0656 -0.0788,0.14387 -0.088,0.2247 l -0.5373,4.8651 c -0.0134,0.12087 0.0225,0.24642 0.0977,0.34193 0,0 2.3288,2.05098 2.59863,3.29224 0,0.91747 -4.5687,6.40619 -5.54013,6.51413 -1.29523,0.16191 -7.47255,-6.4262 -7.47255,-6.4262 -0.0599,-0.0657 -0.13887,-0.11373 -0.2247,-0.13678 0,0 -7.89708,-1.28617 -10.00185,-2.58141 -0.60163,-0.37023 0.78566,-1.5431 1.72727,-2.77215 0.64285,-0.83907 1.28099,-1.6962 1.75847,-2.37393 0.23875,-0.33887 0.43416,-0.63296 0.5764,-0.86947 0.0711,-0.11823 0.13055,-0.22174 0.17584,-0.32239 0.0453,-0.10072 0.13561,-0.14142 0.0587,-0.44939 0.0113,0.0464 -0.23182,-3.69665 -0.3075,-4.23702 -0.0816,-0.6016 0.20817,-1.38743 1.11657,-1.43523 l 9.4389,-2.6121 c 0.0905,-0.024 0.17327,-0.0758 0.23446,-0.14654 0,0 2.58124,-3.20142 3.07734,-3.48763 z"
         id="path6644"
         inkscape:connector-curvature="0"
         sodipodi:nodetypes="ccsssccccccsscccsssssscsssccccccssscccsscscsssccscscccccccccscccccccccsccccccsccccccccccccccccscccccccccccsssccccccccccccccccsssccsccccc" />
      <path
         sodipodi:nodetypes="ccsssccccccsscccsssssscsssccccccssscccsscscsssccscscccccccccscccccccccsccccccsccccccccccccccccscccccccccccsssccccccccccccccccsssccsccccc"
         inkscape:connector-curvature="0"
         id="path6617"
         d="m -19.626131,25.882783 c -0.10635,0.0134 -0.17767,0.14637 -0.12995,0.24233 0,0 1.16252,2.65963 1.59041,3.57556 0.21396,0.45799 1.58595,3.848 1.97274,4.63685 0.38679,0.78886 0.6913,1.38864 0.89877,1.69986 0.62205,0.93308 2.88555,3.12699 2.83309,4.04448 0,0.95403 -2.54001,3.29225 -2.54001,3.29225 l -3.51694,-0.40054 c -0.15116,-0.0188 -0.30991,0.0418 -0.4103,0.15631 l -3.13595,3.55602 -8.74892,2.2734 c -0.90629,0.33036 -2.66417,-0.0388 -2.94491,-0.41724 -0.56147,-0.757 -1.27314,-1.76147 -1.97339,-2.7647 -1.40051,-2.0065 -4.09438,-5.48845 -4.09438,-5.48845 -0.0714,-0.1071 -0.20584,-0.1685 -0.33352,-0.15228 -0.23764,0.0273 -0.3826,0.34711 -0.24654,0.54382 0,0 2.49683,3.62009 3.90266,5.63421 0.70291,1.00707 1.42108,2.01328 1.99293,2.78425 0.28593,0.38548 0.89432,1.12472 1.14487,1.93895 0.14704,0.47786 0.2541,1.22989 0.301,1.91991 0.0469,0.69 0.0851,1.39374 0.11723,1.95385 0.0161,0.28006 0.0343,0.52095 0.0488,0.71315 0.01,0.12936 0.0163,0.21185 0.0293,0.30285 -0.0201,0.0433 -0.0504,0.11999 -0.10747,0.21493 -0.12049,0.20029 -0.3153,0.48187 -0.54708,0.81085 -0.46357,0.65797 -1.10003,1.50092 -1.73893,2.33485 -1.19941,1.56553 -1.63856,1.80756 -2.74332,2.65488 -1.32223,0.6746 -3.11826,1.22353 -3.11826,1.22353 -0.12611,0.0288 -0.23871,0.11236 -0.30285,0.22469 l -1.31884,2.2567 -1.90502,-0.63499 c -0.17783,-0.0586 -0.38866,0.002 -0.508,0.14653 0,0 -0.45326,0.5307 -0.95739,1.07463 -0.25206,0.27196 -0.52424,0.54824 -0.74247,0.75223 -0.10911,0.10198 -0.20278,0.18084 -0.27354,0.23446 -0.0707,0.0537 -0.13536,0.0704 -0.0488,0.0488 0.0196,-0.005 -0.17691,0.0318 -0.42009,0.0684 -0.24316,0.0367 -0.57451,0.0829 -0.95739,0.13677 -0.76573,0.10772 -1.75364,0.2461 -2.74516,0.38101 -0.99152,0.13488 -6.14611,0.55195 -6.60461,0.61534 -0.45852,0.0634 -0.76738,0.10197 -0.88799,0.12603 -0.14666,0.0225 -0.25735,0.18092 -0.22796,0.32633 0.0294,0.14543 0.19294,0.24846 0.3368,0.21219 0.0377,-0.008 0.39632,-0.0571 0.85362,-0.12036 0.45731,-0.0632 5.66534,-0.0966 6.65715,-0.23151 0.99179,-0.13494 1.97619,-0.27284 2.74516,-0.381 0.38449,-0.0541 0.7183,-0.0992 0.96716,-0.13678 0.24886,-0.0375 0.38045,-0.056 0.50801,-0.0879 0.19446,-0.0487 0.27852,-0.12012 0.39077,-0.20516 0.11223,-0.0851 0.22806,-0.18729 0.35169,-0.30285 0.24725,-0.23112 0.52091,-0.51986 0.78154,-0.80108 0.4093,-0.4416 0.63012,-0.7046 0.77178,-0.86947 l 1.9734,0.66432 c 0.2046,0.0682 0.45106,-0.027 0.55683,-0.21492 l 1.40678,-2.41301 c 0,0 2.18638,-0.6471 3.18479,-0.67409 0.5127,0.13493 10.9416,2.73539 10.9416,2.73539 0,0 7.43009,7.30472 7.59861,8.71097 0,0 -0.13488,4.73896 -0.13488,5.27863 -0.10797,0.70159 -11.76122,7.05482 -11.76122,7.05482 -0.11824,0.0593 -0.16405,0.22846 -0.092,0.33933 0.0721,0.11086 0.24527,0.13766 0.34745,0.0537 l 12.20916,-6.78351 c 0.11999,-0.0764 0.20163,-0.21008 0.21491,-0.35171 0,0 0.57641,-5.2186 1.17005,-5.43446 0.4857,-0.26985 3.43541,1.15268 4.75762,2.09712 0.6746,0.64763 2.3043504,1.85462 2.9991904,2.82149 l 2.63998,3.88627 c 0.11949,0.15533 0.3427,0.22144 0.52755,0.15631 l 9.84783,0.27618 c 0.12547,-0.0328 0.20661,-0.18176 0.16601,-0.30492 -0.0407,-0.12312 -0.19446,-0.19471 -0.3148,-0.1464 l -9.67948,-0.82133 -1.95846,-2.52133 c -0.52456,-0.61061 -0.56589,-1.09243 -0.34151,-1.3906 0,0 2.40874,-3.87157 3.56905,-4.22237 1.3492,-0.3238 8.04484,1.23145 8.04484,1.23145 0.17627,0.0518 0.3831,-0.0773 0.41393,-0.2585 0.0308,-0.18112 -0.12161,-0.37144 -0.3051,-0.3809 l -8.21229,-1.54944 c -0.13305,-0.0244 -0.27611,0.0125 -0.38099,0.0977 l -3.61373,4.53919 -3.4778604,-2.49117 c -0.0213,-0.0183 -0.0442,-0.0347 -0.0684,-0.0488 l -4.16817,-2.57027 c -0.32381,-1.02539 4.56871,-7.86332 4.56871,-7.86332 0.10797,-0.16218 0.0997,-0.39302 -0.0195,-0.54708 l -2.69632,-3.41925 0.51776,-4.55248 c 0,0 2.83202,-3.96527 3.19457,-4.3278 0.38159,-0.7823 8.8998104,-5.50989 8.8998104,-5.50989 l 5.69548,-0.10747 c 0.13368,-0.003 0.26538,-0.0641 0.3517,-0.16608 l 2.75216,-3.78072 c 0.0582,-0.0676 0.0698,-0.17148 0.0279,-0.25023 -0.0419,-0.0787 -0.13449,-0.12723 -0.22305,-0.11673 -0.0563,0.009 -0.1091,0.0388 -0.14402,0.0836 l -2.9894,3.29233 -5.61734,0.10748 c -0.0856,-7e-5 -0.17111,0.0239 -0.24424,0.0684 0,0 -7.8462504,5.42149 -8.7239704,5.40241 -1.06851,0 -2.7218,-2.92361 -2.96986,-3.43879 -0.49608,-1.29748 0,-4.04449 0,-4.04449 -3e-4,-0.0782 -0.0208,-0.15624 -0.0586,-0.22468 l 2.76471,-3.58534 c 0.12532,-0.15947 0.12951,-0.40289 0.01,-0.56661 0,0 -2.37911,-3.35374 -3.00894,-4.29849 -0.11636,-0.17449 -0.45791,-0.8128 -0.84015,-1.59239 -0.38225,-0.77959 -2.17919,-3.96823 -2.39242,-4.4247 -0.42649,-0.91292 -1.70185,-3.51788 -1.70185,-3.51788 -0.0266,-0.0622 -0.094,-0.1046 -0.16154,-0.10185 -0.006,-2.1e-4 -0.0113,-2.1e-4 -0.0176,0 z m 1.24488,18.04818 c 0.47702,-0.1908 2.91857,-0.18211 3.24294,0.23767 0.22897,0.32436 -0.0191,3.41619 0.0955,4.19849 0.0971,0.98824 2.66075,3.06817 2.71799,3.86957 0.0382,1.03035 -2.74455,4.30641 -2.74455,4.30641 -0.0482,0.0656 -0.0788,0.14387 -0.088,0.2247 l -0.5373,4.8651 c -0.0134,0.12087 0.0225,0.24642 0.0977,0.34193 0,0 2.3288,2.05098 2.59863,3.29224 0,0.91747 -4.5687,6.40619 -5.54013,6.51413 -1.29523,0.16191 -7.47255,-6.4262 -7.47255,-6.4262 -0.0599,-0.0657 -0.13887,-0.11373 -0.2247,-0.13678 0,0 -7.89708,-1.28617 -10.00185,-2.58141 -0.60163,-0.37023 0.78566,-1.5431 1.72727,-2.77215 0.64285,-0.83907 1.28099,-1.6962 1.75847,-2.37393 0.23875,-0.33887 0.43416,-0.63296 0.5764,-0.86947 0.0711,-0.11823 0.13055,-0.22174 0.17584,-0.32239 0.0453,-0.10072 0.13561,-0.14142 0.0587,-0.44939 0.0113,0.0464 -0.23182,-3.69665 -0.3075,-4.23702 -0.0816,-0.6016 0.20817,-1.38743 1.11657,-1.43523 l 9.4389,-2.6121 c 0.0905,-0.024 0.17327,-0.0758 0.23446,-0.14654 0,0 2.58124,-3.20142 3.07734,-3.48763 z"
         style="font-size:medium;font-style:normal;font-variant:normal;font-weight:normal;font-stretch:normal;text-indent:0;text-align:start;text-decoration:none;line-height:normal;letter-spacing:normal;word-spacing:normal;text-transform:none;direction:ltr;block-progression:tb;writing-mode:lr-tb;text-anchor:start;baseline-shift:baseline;color:#000000;fill:#31314e;fill-opacity:1;stroke:none;stroke-width:3;marker:none;visibility:visible;display:inline;overflow:visible;enable-background:accumulate;font-family:Sans;-inkscape-font-specification:Sans" />
    </g>
  </g>
</svg>
